<?xml version="1.0" standalone="no"?>
<!DOCTYPE svg PUBLIC "-//W3C//DTD SVG 1.1//EN" "http://www.w3.org/Graphics/SVG/1.1/DTD/svg11.dtd" >
<svg xmlns="http://www.w3.org/2000/svg">
<metadata>
This is a custom SVG webfont generated by Font Squirrel.
Copyright   :  2001 Apostrophic Labs All rights reserved Web wwwapostrophiclabcom  Email apostrophehomecom
</metadata>
<defs>
<font id="SteinemBold" horiz-adv-x="1118" >
<font-face units-per-em="2048" ascent="1638" descent="-410" />
<missing-glyph horiz-adv-x="569" />
<glyph unicode=" "  horiz-adv-x="569" />
<glyph unicode="&#x09;" horiz-adv-x="569" />
<glyph unicode="&#xa0;" horiz-adv-x="569" />
<glyph unicode="!" horiz-adv-x="497" d="M113 145q0 -70 46 -120t107 -50t107.5 50.5t46.5 119.5q0 70 -45 121t-109 51q-63 0 -108 -51t-45 -121zM145 1462l11 -956q0 -20 14 -35.5t33 -15.5h127q18 0 33.5 16t15.5 35l10 956q0 20 -14.5 34.5t-34.5 14.5h-147q-20 0 -34 -14.5t-14 -34.5z" />
<glyph unicode="&#x22;" horiz-adv-x="905" d="M158 1464l32 -454q0 -20 15.5 -32.5t34.5 -12.5h127q45 0 49 45l33 454q0 20 -14.5 37t-35.5 17h-190q-23 0 -37 -17t-14 -37zM494 1464l32 -454q0 -20 15.5 -32.5t36.5 -12.5h124q45 0 50 45l32 454q0 23 -13 38.5t-36 15.5h-190q-23 0 -37 -17t-14 -37z" />
<glyph unicode="#" horiz-adv-x="1122" d="M43 479q0 -51 49 -51h133l-49 -371v-8q0 -20 15.5 -34.5t35.5 -14.5h131q45 0 52 43l49 385h145l-49 -371v-8q0 -20 15.5 -34.5t35.5 -14.5h131q45 0 51 43l52 385h170q51 0 51 51v123q0 51 -51 51h-138l29 209h168q51 0 51 51v123q0 51 -51 51h-137l53 367v8 q0 20 -14.5 34.5t-34.5 14.5h-133q-41 0 -49 -45l-54 -379h-147l53 367v8q0 20 -16.5 34.5t-34.5 14.5h-131q-18 0 -32.5 -13t-18.5 -32l-54 -379h-167q-51 0 -52 -51v-123q0 -51 52 -51h135l-29 -209h-166q-49 0 -49 -51v-123zM492 653l28 209h146l-27 -209h-147z" />
<glyph unicode="$" horiz-adv-x="1116" d="M104 1098q0 -90 32 -158t86 -116t117.5 -80.5t145.5 -61.5v-451q-82 6 -149.5 25.5t-151.5 52.5l-2 2q-10 8 -26 8q-20 0 -35 -14t-15 -37v-143q0 -12 9.5 -27.5t21.5 -19.5q72 -29 160 -49.5t188 -26.5v-117q0 -51 50 -51h106q49 0 49 51v127q180 33 282.5 143.5 t102.5 280.5q0 96 -27.5 168t-78.5 122t-119 85t-160 66v415q117 -8 221 -51q10 -6 27 -6q14 0 29.5 9t19.5 26l-2 -2l37 100q8 10 8 29q0 37 -35 47q-57 23 -140 44t-165 28v108q0 51 -49 51h-106q-49 0 -50 -51v-113q-178 -31 -279.5 -138t-101.5 -275zM356 1120 q0 121 129 160v-328q-70 33 -99.5 73t-29.5 95zM690 258v348q61 -31 93 -71.5t32 -102.5q0 -127 -125 -174z" />
<glyph unicode="%" horiz-adv-x="2285" d="M168 1102q0 -90 34 -170t93 -139.5t140 -92t171 -32.5t170 32.5t140.5 92t94 139.5t33.5 170t-33.5 170t-94 140.5t-140.5 93t-170 32.5t-171 -32.5t-140 -93t-93 -140.5t-34 -170zM410 1102q0 86 57 146.5t139 60.5q80 0 137.5 -60.5t57.5 -146.5q0 -84 -57.5 -145.5 t-137.5 -61.5q-82 0 -139 61.5t-57 145.5zM492 59q0 -25 14 -34l112 -78q16 -10 31 -10q23 0 35 12l1139 1474l-2 -4q12 12 12 35q0 27 -23 41h2l-106 74l4 -2q-12 12 -33 12q-23 0 -35 -12l-1138 -1477l2 4q-14 -15 -14 -35zM1282 412q0 -90 34 -170t94 -139.5t140 -93.5 t170 -34t171 34t140.5 93.5t93.5 139.5t34 170t-34 170t-93.5 139t-140.5 93t-171 34t-170 -34t-140 -93t-94 -139t-34 -170zM1526 412q0 86 56 146t138 60t139.5 -60t57.5 -146q0 -84 -57.5 -145.5t-139.5 -61.5t-138 61.5t-56 145.5z" />
<glyph unicode="&#x26;" horiz-adv-x="1449" d="M55 408q0 -96 39 -176t105.5 -137.5t151.5 -88.5t173 -31q133 0 239.5 46.5t213.5 160.5l100 -100v2q53 -53 92 -68.5t80 -15.5q68 0 130.5 34t105.5 75l2 47l-53 77v-2q-4 8 -16.5 15.5t-22.5 7.5q-8 0 -23 -6l-8 -4q-12 -10 -25.5 -18.5t-23.5 -8.5q-20 0 -49 29v-2 l-140 143q4 4 11 16v-2l149 246h80q51 0 51 51v113q0 20 -14 34.5t-37 14.5h-195q-10 0 -25.5 -9t-19.5 -17v2l-163 -277l-238 248q145 82 216 167t71 212q0 166 -115 259t-285 93q-174 0 -293.5 -98.5t-119.5 -270.5q0 -92 37.5 -165.5t109.5 -153.5q-145 -82 -218 -188.5 t-73 -253.5zM309 432q0 72 49.5 132.5t145.5 119.5l313 -332q-133 -154 -274 -153q-94 0 -164 68.5t-70 164.5zM449 1174q0 78 46 120.5t119 42.5q68 0 113 -44t45 -109q0 -55 -51 -110.5t-148 -108.5q-57 61 -90.5 110.5t-33.5 98.5z" />
<glyph unicode="'" horiz-adv-x="485" d="M127 1464l29 -454q0 -45 47 -45h112q16 0 30.5 12t16.5 33l31 454q0 20 -14 37t-35 17h-170q-20 0 -33.5 -17t-13.5 -37z" />
<glyph unicode="(" horiz-adv-x="530" d="M74 616q0 -240 76.5 -479t220.5 -450q8 -8 30 -9q12 0 19 5l2 2l135 92q10 10 10 30q0 12 -4 19q-4 4 -4 6q-121 205 -175 381t-54 403q0 213 58 412t173 369l2 4q4 14 4 20q0 25 -22 39h2l-115 84l-8 4q-10 6 -21 6q-23 0 -36 -14q-139 -203 -216 -439.5t-77 -484.5z " />
<glyph unicode=")" horiz-adv-x="530" d="M2 -188q0 -23 10 -33l125 -90l-4 2q12 -12 33 -13q25 0 33 9q141 207 219 444.5t78 484.5q0 236 -78 477.5t-219 450.5q-2 0 -2 2q-10 8 -29 8q-20 0 -33 -12l4 2l-114 -80q-23 -12 -23 -41q0 -14 6 -26q123 -203 177.5 -379t54.5 -402q0 -438 -234 -782q-4 -8 -4 -22z " />
<glyph unicode="*" horiz-adv-x="876" d="M31 1186q0 -27 32 -45l209 -64l-131 -166l2 4q-8 -8 -10 -14t-2 -18q0 -23 12 -35l125 -96l6 -4q10 -6 23 -7q23 0 41 25l119 182l123 -178q10 -29 43 -29q23 0 34 13l-4 -2l117 90h-2q23 14 23 39q0 20 -11 32l-139 164l207 62v-2q35 8 35 47q0 16 -9 26l-40 131 q-18 35 -48 35h-6l-8 -2l-203 -80l13 209q0 25 -14.5 39t-35.5 14h-149q-20 0 -34.5 -14t-14.5 -39l10 -209l-199 80l-8 2h-8q-16 0 -30.5 -10t-18.5 -27l2 2l-49 -145v-4z" />
<glyph unicode="+" horiz-adv-x="1124" d="M16 578q0 -51 52 -52h391v-393q0 -23 14 -37t35 -14h147q49 0 50 51v393h391q51 0 51 52v141q0 51 -51 51h-391v393q0 49 -50 49h-147q-49 0 -49 -49v-393h-391q-51 0 -52 -51v-141z" />
<glyph unicode="," horiz-adv-x="520" d="M63 -174q0 -16 9.5 -30.5t29.5 -18.5l-4 2l107 -37h8q27 0 33 6q61 76 125.5 201t97.5 246l-25 45l-188 53h-4q-45 0 -51 -43q-16 -100 -53 -213t-78 -189q-7 -12 -7 -22z" />
<glyph unicode="-" horiz-adv-x="641" d="M57 375q0 -47 52 -47h462q49 0 50 47v123q0 47 -50 47h-462q-51 0 -52 -47v-123z" />
<glyph unicode="." horiz-adv-x="497" d="M113 133q0 -63 46 -108t107 -45t107.5 45t46.5 108q0 61 -45 107.5t-109 46.5q-63 0 -108 -46.5t-45 -107.5z" />
<glyph unicode="/" horiz-adv-x="731" d="M-25 66q0 -14 9.5 -30t25.5 -20l-4 2l115 -47q10 -8 26 -8q39 0 50 35l-2 -4l593 1429q6 8 7 27q0 39 -35 49l2 -2l-115 41q-10 10 -29 10q-35 0 -45 -30v2l-589 -1430q-9 -8 -9 -24z" />
<glyph unicode="0" horiz-adv-x="1120" d="M55 756q0 -141 24.5 -276.5t83 -250t162 -184.5t255.5 -70t255 70t162.5 185.5t83 249.5t23.5 276q0 143 -24.5 277t-83 249t-162 184.5t-254.5 69.5q-152 0 -255.5 -69.5t-162 -184.5t-83 -249t-24.5 -277zM326 756q0 92 9 181t34.5 173t78 138.5t132.5 54.5t132 -54.5 t77.5 -138.5t35 -173t9.5 -181q0 -90 -9.5 -179.5t-35 -173.5t-78 -138t-131.5 -54q-80 0 -132.5 54t-78 138t-34.5 173.5t-9 179.5z" />
<glyph unicode="1" horiz-adv-x="1087" d="M264 1239q0 -20 14.5 -34.5t34.5 -14.5h6l136 37v-1008h-123q-49 0 -49 -51v-117q0 -51 49 -51h499q49 0 50 51v117q0 51 -50 51h-120v1241q0 51 -52 51h-8l-350 -102v2q-37 -10 -37 -49v-123z" />
<glyph unicode="2" horiz-adv-x="1120" d="M27 43q0 -20 15 -35.5t36 -15.5h8l10 2q8 2 21 4q86 12 148.5 19.5t131.5 7.5q37 0 123 -15q18 -2 29 -4h-4q6 -2 14 -2q6 0 12 -2q100 -18 164 -18q135 0 224.5 83t91.5 236l-33 33l-109 16h-8q-18 0 -30.5 -12t-16.5 -29q-16 -74 -90 -73q-18 0 -59 8q-4 0 -17 2 q-6 2 -14 2t-15 2l-4 2q-49 10 -86 15t-92 5q-18 0 -28 -2l202 203q170 168 263.5 317.5t93.5 307.5q0 213 -128 324.5t-337 111.5q-72 0 -139.5 -17.5t-125 -45t-99.5 -57.5t-68 -56q-18 -8 -19 -37q0 -14 10 -31l66 -90v2q14 -23 39 -22q23 0 37 14h-2q41 39 114.5 71.5 t153.5 32.5q115 0 171 -54t56 -150q0 -92 -58 -201t-202 -258l-436 -449v2q-4 -4 -9 -17t-5 -19v-111z" />
<glyph unicode="3" horiz-adv-x="1116" d="M55 123q0 -12 10.5 -27.5t22.5 -19.5q100 -49 198.5 -75t213.5 -26q98 0 191 30t167 89.5t116 148.5t42 201q0 117 -53.5 212.5t-149.5 144.5q78 55 120 139t42 186q0 193 -132 301.5t-335 108.5q-123 0 -233.5 -45t-198.5 -107q-14 -14 -15 -34q0 -10 11 -29q2 -4 4 -6 l55 -92l-2 6q10 -31 45 -31q10 0 14 2q8 0 13 4q4 2 10 8q63 39 131 66t147 27q111 0 166.5 -53.5t55.5 -141.5q0 -61 -21.5 -100t-58.5 -59.5t-79 -29t-87 -8.5h-49q-51 0 -51 -51v-139q0 -51 51 -51h49q53 0 103 -12.5t91 -39t65 -70.5t24 -106q0 -106 -70 -170.5 t-178 -64.5q-121 0 -198 26.5t-173 83.5q-2 0 -6 5q-6 4 -19 4q-20 0 -34.5 -14.5t-14.5 -37.5v-153z" />
<glyph unicode="4" horiz-adv-x="1120" d="M37 391q0 -51 49 -51h588v-127h-88q-49 0 -49 -51v-111q0 -51 49 -51h432q20 0 34.5 14.5t14.5 36.5v111q0 23 -14.5 37t-34.5 14h-94v127h118q51 0 52 51v119q0 51 -52 51h-118v899q0 51 -52 51h-233q-12 0 -25.5 -9t-17.5 -17v2l-559 -914v-182zM295 561l379 625v-625 h-379z" />
<glyph unicode="5" horiz-adv-x="1116" d="M92 121q0 -31 27 -45q76 -41 171 -71t226 -30q109 0 203 37t164.5 106.5t109.5 166t39 211.5q0 233 -133 368t-362 135q-84 0 -150 -12l14 285h523q23 0 37 14t14 35v141q0 20 -14.5 34.5t-36.5 14.5h-699q-20 0 -35.5 -15t-15.5 -32l-33 -729q0 -20 14.5 -34.5 t34.5 -14.5q23 0 33 10l-8 -4q70 37 147.5 56.5t141.5 19.5q123 0 191.5 -68.5t68.5 -203.5q0 -129 -67.5 -206t-196.5 -77q-94 0 -165 22.5t-157 75.5q-14 8 -21 10.5t-14 2.5q-20 0 -35.5 -14.5t-15.5 -35.5v-153z" />
<glyph unicode="6" horiz-adv-x="1120" d="M80 760q0 -184 21.5 -297t58.5 -193q133 -295 456 -295q102 0 192.5 37t159 106.5t106.5 166t38 211.5q0 231 -133 366t-350 135q-158 0 -277 -98q23 215 107 312.5t203 97.5q74 0 126 -16.5t99 -39.5q10 -6 14 -6q10 -8 29 -8q37 0 47 35l-2 -4l45 102q8 10 8 29 q0 31 -24 43h2q-55 35 -146.5 63.5t-200.5 28.5q-137 0 -250.5 -63.5t-170.5 -149.5v2q-78 -111 -118 -240.5t-40 -324.5zM373 483q0 129 65.5 206t169.5 77t171 -77t67 -206q0 -117 -67.5 -197.5t-170.5 -80.5q-102 0 -168.5 76.5t-66.5 201.5z" />
<glyph unicode="7" d="M82 1323q0 -51 49 -51h637l-530 -1200l2 2q-6 -12 -7 -25q0 -20 14.5 -34.5t37.5 -14.5h159q12 0 27.5 10t20.5 23v-2l567 1310v119q0 51 -51 51h-877q-49 0 -49 -51v-137z" />
<glyph unicode="8" d="M84 440q0 -106 38 -192t105.5 -147.5t157.5 -93.5t193 -32q104 0 194 32t156.5 92.5t104.5 147.5t38 193q0 117 -54 215.5t-149 153.5q72 53 113 136t41 173q0 92 -33 169t-94 134q-125 115 -317 115q-94 0 -175 -29.5t-140.5 -85t-93.5 -133.5t-34 -170q0 -90 40 -173 t114 -136q-96 -53 -150.5 -151.5t-54.5 -217.5zM346 442q0 102 66.5 173t165.5 71q100 0 166.5 -70.5t66.5 -173.5q0 -102 -67.5 -172.5t-165.5 -70.5t-165 70.5t-67 172.5zM385 1122q0 88 55.5 143.5t137.5 55.5q84 0 139 -55.5t55 -143.5q0 -84 -55 -141t-139 -57 q-82 0 -137.5 57t-55.5 141z" />
<glyph unicode="9" horiz-adv-x="1120" d="M41 1024q0 -221 133 -355t346 -134q80 0 151.5 19t129.5 64q-20 -209 -106.5 -309t-213.5 -100q-76 0 -140.5 17.5t-131.5 47.5l2 -2q-12 6 -25 7q-47 0 -47 -52v-141q0 -12 9.5 -27.5t21.5 -19.5h-2q82 -33 156.5 -48.5t179.5 -15.5q129 0 243.5 58.5t180.5 154.5 q72 104 109.5 247t37.5 333q0 156 -22.5 277.5t-59.5 201.5q-135 289 -456 289q-104 0 -194.5 -37t-158 -105.5t-105.5 -162.5t-38 -207zM301 1038q0 119 64.5 195t177.5 76q104 0 172.5 -80t68.5 -191q0 -129 -66.5 -199.5t-174.5 -70.5q-102 0 -172 77.5t-70 192.5z" />
<glyph unicode=":" horiz-adv-x="497" d="M113 145q0 -70 46 -120t107 -50t107.5 50.5t46.5 119.5q0 68 -45 118t-109 50q-63 0 -108 -50t-45 -118zM113 852q0 -68 46 -118t107 -50t107.5 50t46.5 118q0 70 -45 119t-109 49q-63 0 -108 -49t-45 -119z" />
<glyph unicode=";" horiz-adv-x="520" d="M63 -184q0 -16 9.5 -30.5t29.5 -18.5l-4 2l107 -41h8q25 0 35 10q61 78 125.5 207t95.5 254l-23 49l-188 55l-4 2h-4q-16 0 -30.5 -13t-18.5 -32q-16 -106 -54 -224t-77 -198l4 8q-11 -10 -11 -30zM131 860q0 -70 48 -120t112 -50q63 0 111.5 50.5t48.5 119.5 q0 68 -47.5 118t-112.5 50q-66 0 -113 -50t-47 -118z" />
<glyph unicode="&#x3c;" horiz-adv-x="1124" d="M16 586q0 -12 9.5 -27.5t21.5 -19.5l1034 -455h9l8 -2q20 0 34.5 14.5t14.5 36.5v146q0 12 -10.5 27.5t-22.5 19.5h2l-743 321l743 324q10 4 20.5 19.5t10.5 27.5v145q0 23 -14.5 36t-32.5 13q-12 0 -25 -6l2 2l-1030 -450h2q-12 -4 -22.5 -19.5t-10.5 -27.5v-125z" />
<glyph unicode="=" horiz-adv-x="1124" d="M16 401q0 -51 52 -51h1028q51 0 51 51v136q0 20 -14.5 34.5t-36.5 14.5h-1028q-23 0 -37.5 -14.5t-14.5 -34.5v-136zM16 707q0 -49 52 -50h1028q51 0 51 50v135q0 49 -51 49h-1028q-51 0 -52 -49v-135z" />
<glyph unicode="&#x3e;" horiz-adv-x="1124" d="M16 133q0 -23 15.5 -37t36.5 -14l8 2h8l1032 455q10 4 20.5 19t10.5 28v125q0 12 -10.5 27.5t-22.5 19.5h2l-1028 450l2 -2q-12 6 -24 6q-49 0 -50 -49v-145q0 -12 9.5 -27.5t21.5 -19.5l741 -324l-741 -321h2q-12 -4 -22.5 -19.5t-10.5 -27.5v-146z" />
<glyph unicode="?" horiz-adv-x="952" d="M37 1317q0 -25 12 -37v2l76 -88q14 -14 37 -14t37 14q45 49 111.5 88t148.5 39q98 0 148 -46t50 -128q0 -63 -38.5 -119.5t-108.5 -128.5v2l-18 -20q-84 -92 -113 -158t-29 -182v-95q0 -23 14.5 -37t34.5 -14h154q20 0 34.5 14.5t14.5 36.5v82q0 76 19.5 117t64.5 82 q119 119 175.5 209t56.5 223q0 188 -120 288.5t-321 100.5q-141 0 -248.5 -58t-179.5 -138v2q-12 -12 -12 -37zM309 145q0 -70 50.5 -120t115.5 -50q68 0 118 50.5t50 119.5q0 70 -49 121t-119 51t-118 -51t-48 -121z" />
<glyph unicode="@" horiz-adv-x="1605" d="M63 702q0 -276 160 -473v2q102 -125 256 -196.5t357 -71.5q109 0 208 22.5t181 58.5t141 71t109 71q12 12 12 35q0 12 -4 17q-2 2 -2 4l-70 102q-2 0 -2 2q-10 8 -29 8q-12 0 -37 -12l-10 -6q-106 -70 -221 -116t-278 -46q-135 0 -244 49t-178 135q-117 145 -117 353 q0 133 43 247.5t121 200.5t180 133t219 47q111 0 212 -43t171 -120h-131q-12 0 -26.5 -9.5t-20.5 -21.5q-76 70 -199 69q-102 0 -195.5 -45t-165 -126.5t-112.5 -190.5t-41 -231q0 -154 91 -244t233 -90q129 0 239 84q23 -43 68 -63.5t104 -20.5q84 0 170 39t160 116.5 t119 191.5t45 255t-56.5 263t-156.5 211t-231 137t-277 48q-162 0 -307 -61.5t-255 -175t-171.5 -270.5t-61.5 -339zM598 627q0 74 21.5 143.5t59.5 122.5t85 84t96 31q59 0 88 -34t29 -97q0 -57 -19 -125q-29 -113 -93 -182.5t-156 -69.5q-51 0 -81 35t-30 92zM1124 516 l164 596q66 -104 66 -233q0 -76 -19.5 -143.5t-52.5 -119.5q-68 -102 -156 -104z" />
<glyph unicode="A" horiz-adv-x="1353" d="M-29 51q0 -23 14.5 -37t34.5 -14h224q14 0 28.5 11.5t18.5 23.5l160 457h430l151 -457l-2 2q4 -14 19.5 -25.5t31.5 -11.5h252q51 0 51 51v117q0 51 -51 51h-84l-428 1258l2 -2q-10 37 -49 36h-168q-14 0 -27.5 -11t-19.5 -23l-461 -1258h-78q-20 0 -34.5 -14.5 t-14.5 -36.5v-117zM532 725l144 397l127 -397h-271z" />
<glyph unicode="B" horiz-adv-x="1280" d="M59 51q0 -51 52 -51h534q117 0 221.5 21.5t189.5 71.5t135 137t50 212q0 119 -63.5 216.5t-167.5 144.5q162 111 161 313q0 106 -42 182t-114.5 123t-164.5 68.5t-195 21.5h-544q-51 0 -52 -51v-117q0 -51 52 -51h67v-1073h-67q-51 0 -52 -51v-117zM440 227v445h242 q119 0 195.5 -53.5t76.5 -169.5q0 -106 -76.5 -164t-199.5 -58h-238zM440 899v385h203q117 0 184.5 -46t67.5 -144q0 -57 -22.5 -95t-60.5 -59.5t-85 -31t-100 -9.5h-187z" />
<glyph unicode="C" horiz-adv-x="1245" d="M61 756q0 -178 51.5 -324.5t145.5 -251t226 -161t292 -56.5q127 0 232.5 26.5t183.5 67.5q27 14 27 45v150q0 23 -14.5 37t-35.5 14q-23 0 -32 -10l8 4q-78 -43 -159 -66.5t-187 -23.5q-98 0 -183.5 40t-145.5 113.5t-94 175t-34 220.5t30.5 220t89 176t141.5 117t188 42 q86 0 156.5 -17.5t150.5 -48.5q6 -6 26 -6q39 0 50 35l-3 -2l46 114q8 10 8 29q0 39 -35 49l4 -2q-94 39 -191.5 62.5t-222.5 23.5q-158 0 -290 -56t-228 -162.5t-148.5 -253t-52.5 -320.5z" />
<glyph unicode="D" horiz-adv-x="1378" d="M63 51q0 -51 52 -51h440q195 0 344.5 56.5t247.5 158.5t147 239.5t49 301.5q0 162 -49 300t-147 240.5t-247.5 158.5t-344.5 56h-440q-51 0 -52 -51v-117q0 -51 52 -51h67v-1073h-67q-51 0 -52 -51v-117zM446 227v1057h132q106 0 196 -39t154.5 -109.5t100.5 -168 t36 -211.5q0 -115 -35 -212.5t-98.5 -169t-147.5 -109.5t-182 -38h-156z" />
<glyph unicode="E" d="M63 51q0 -51 52 -51h981q20 0 34.5 14.5t14.5 36.5l2 125q0 23 -14.5 37t-34.5 14h-654v449h529q23 0 37 14.5t14 34.5v129q0 20 -14.5 34.5t-36.5 14.5h-529v381h584q49 0 49 51v125q0 51 -49 51h-913q-51 0 -52 -51v-117q0 -51 52 -51h67v-1073h-67q-51 0 -52 -51v-117 z" />
<glyph unicode="F" horiz-adv-x="1042" d="M49 51q0 -51 51 -51h416q51 0 51 51v117q0 51 -51 51h-88v469h463q51 0 51 49v127q0 51 -51 51h-463v369h598q51 0 51 51v125q0 51 -51 51h-926q-51 0 -51 -51v-117q0 -51 51 -51h68v-1073h-68q-51 0 -51 -51v-117z" />
<glyph unicode="G" horiz-adv-x="1331" d="M74 756q0 -176 50 -322.5t144 -252t226.5 -162t291.5 -56.5q131 0 250 32t230 89l18 35v663q0 23 -14.5 37.5t-34.5 14.5h-291q-51 0 -51 -52v-118q0 -51 51 -52h80v-376q-100 -31 -213 -31q-102 0 -187 40t-145.5 114.5t-93.5 176t-33 220.5t31 220t88 176t139 117 t185 42q100 0 173.5 -21.5t141.5 -58.5l-8 4q10 -10 31 -10q41 0 51 35l-2 -5l49 119q8 10 8 27q0 37 -31 47q-86 45 -190.5 72.5t-241.5 27.5q-154 0 -282.5 -56t-223 -162.5t-145.5 -252t-51 -321.5z" />
<glyph unicode="H" horiz-adv-x="1486" d="M47 51q0 -51 49 -51h283q51 0 51 51v621h629v-621q0 -51 51 -51h283q51 0 51 51v117q0 51 -51 51h-70v1073h70q51 0 51 51v117q0 51 -51 51h-283q-51 0 -51 -51v-561h-629v561q0 51 -51 51h-283q-49 0 -49 -51v-117q0 -51 49 -51h70v-1073h-70q-49 0 -49 -51v-117z" />
<glyph unicode="I" horiz-adv-x="559" d="M45 51q0 -51 49 -51h381q20 0 34.5 14.5t14.5 36.5v117q0 23 -14 37t-35 14h-65v1073h65q20 0 34.5 14.5t14.5 36.5v117q0 23 -14 37t-35 14h-381q-49 0 -49 -51v-117q0 -51 49 -51h64v-1073h-64q-49 0 -49 -51v-117z" />
<glyph unicode="J" horiz-adv-x="716" d="M-29 59q0 -10 9.5 -26.5t17.5 -20.5q57 -25 116.5 -37t135.5 -12q160 0 246 95.5t86 254.5v981h67q51 0 51 49v119q0 49 -51 49h-401q-49 0 -49 -49v-119q0 -49 49 -49h78v-940q0 -76 -25 -116.5t-86 -40.5q-86 0 -180 47l-6 2h-9q-20 0 -34.5 -14.5t-14.5 -36.5v-136z " />
<glyph unicode="K" horiz-adv-x="1355" d="M57 51q0 -51 52 -51h282q49 0 49 51v520l158 174l430 -720v2q4 -8 19.5 -17.5t25.5 -9.5h264q49 0 49 51v117q0 51 -49 51h-110l-441 729l316 344h168q51 0 51 51v117q0 51 -51 51h-264q-6 0 -18.5 -5t-18.5 -11l-529 -582v547q0 51 -49 51h-282q-51 0 -52 -51v-117 q0 -51 52 -51h69v-1073h-69q-51 0 -52 -51v-117z" />
<glyph unicode="L" horiz-adv-x="1110" d="M59 51q0 -51 52 -51h981q20 0 34.5 14.5t14.5 36.5v125q0 23 -14.5 37t-34.5 14h-652v1065h88q20 0 35 14.5t15 36.5v117q0 23 -14.5 37t-35.5 14h-417q-51 0 -52 -51v-117q0 -51 52 -51h67v-1073h-67q-51 0 -52 -51v-117z" />
<glyph unicode="M" horiz-adv-x="1882" d="M51 51q0 -51 51 -51h265q20 0 34.5 14.5t14.5 36.5v1006l430 -1026q4 -10 19.5 -20.5t27.5 -10.5h96q12 0 27.5 10t19.5 23v-2l424 1022v-1002q0 -23 14.5 -37t34.5 -14h283q51 0 51 51v117q0 51 -51 51h-70v1073h70q51 0 51 51v117q0 51 -51 51h-377q-10 0 -26.5 -10 t-18.5 -20l-422 -1026l-430 1026v-2q-4 12 -19.5 22t-27.5 10h-369q-51 0 -51 -51v-117q0 -51 51 -51h70v-1073h-70q-51 0 -51 -51v-117z" />
<glyph unicode="N" horiz-adv-x="1564" d="M66 51q0 -23 14 -37t35 -14h272q20 0 34.5 14.5t14.5 36.5v1028l701 -1056v2q4 -8 18 -16.5t23 -8.5h202q20 0 35 14.5t15 36.5v1241h69q51 0 51 51v117q0 51 -51 51h-270q-51 0 -51 -51v-1028l-699 1057v-2q-4 8 -19.5 16t-23.5 8h-321q-20 0 -34.5 -14t-14.5 -37v-117 q0 -23 14 -37t35 -14h69v-1073h-69q-20 0 -34.5 -14.5t-14.5 -36.5v-117z" />
<glyph unicode="O" horiz-adv-x="1544" d="M59 756q0 -172 46.5 -317.5t137.5 -252t226 -165t307 -58.5q174 0 308.5 58.5t225.5 165t137 252t46 317.5t-46 317.5t-137 252t-226.5 164.5t-307.5 58t-307 -58t-226 -164.5t-137.5 -252t-46.5 -317.5zM342 756q0 115 25.5 216t79 179t136.5 122t193 44q111 0 195 -44 t137 -122t78.5 -179.5t25.5 -215.5q0 -115 -25.5 -216.5t-78.5 -178t-137 -120.5t-195 -44t-193.5 44t-136 120.5t-79 178t-25.5 216.5z" />
<glyph unicode="P" horiz-adv-x="1161" d="M53 51q0 -51 51 -51h412q51 0 51 51v117q0 51 -51 51h-84v383h213q240 0 375 117t135 334q0 215 -136 336.5t-374 121.5h-541q-51 0 -51 -51v-117q0 -51 51 -51h68v-1073h-68q-51 0 -51 -51v-117zM432 829v455h221q111 0 172.5 -60.5t61.5 -170.5q0 -111 -60.5 -167.5 t-173.5 -56.5h-221z" />
<glyph unicode="Q" horiz-adv-x="1546" d="M76 760q0 -289 125 -493t360 -269q-80 -57 -127 -143l2 2q-10 -10 -10 -31q0 -27 25 -45l63 -41q2 0 8 -4q12 -8 25 -8q20 0 39 18q35 43 67.5 63.5t81.5 20.5q33 0 76 -12h-2l18 -6q23 -6 74 -27l-2 2q2 0 8 -4l6 -2q4 -2 29 -10l16 -4l207 -82q55 -20 113 -21 q84 0 163 44t146 147l-8 51l-78 63l4 -2q-12 12 -35 13q-23 0 -34 -13q-55 -74 -123 -73q-23 0 -58 10l-245 90q244 66 372.5 269.5t128.5 496.5q0 172 -46 318.5t-137 254t-226 165.5t-309 58q-172 0 -307.5 -58t-226.5 -165.5t-137 -254t-46 -318.5zM358 758q0 117 26 219 t79 180t136 122t194 44q113 0 195.5 -44t135 -122t78 -180.5t25.5 -218.5q0 -117 -25.5 -217.5t-78 -178t-136.5 -121.5t-194 -44q-111 0 -194 44t-136 120.5t-79 179t-26 217.5z" />
<glyph unicode="R" horiz-adv-x="1236" d="M45 51q0 -51 51 -51h400q51 0 51 51v117q0 51 -51 51h-70v422h182q76 -45 112 -126t64 -212q18 -78 34 -127t39.5 -90t62 -63.5t96.5 -22.5h201q20 0 34.5 14.5t14.5 36.5v117q0 23 -14.5 37t-34.5 14h-87q-37 0 -57 47q-12 23 -29 96v5q-4 20 -10 36l2 -2 q-25 94 -53.5 163t-83.5 124q74 31 129 86q115 115 115 299q0 205 -134.5 321.5t-371.5 116.5h-541q-51 0 -51 -51v-117q0 -51 51 -51h68v-1073h-68q-51 0 -51 -51v-117zM426 870v414h223q104 0 160.5 -55t56.5 -156q0 -203 -217 -203h-223z" />
<glyph unicode="S" horiz-adv-x="1021" d="M31 1114q0 -104 37.5 -180t100 -126t136.5 -84t180 -71q127 -43 192.5 -96t65.5 -145q0 -104 -72.5 -156.5t-207.5 -52.5q-98 0 -184 23.5t-170 62.5l2 -2q-12 6 -25 6q-47 0 -47 -51v-150q0 -12 9 -27.5t22 -19.5h-2q84 -35 187 -58.5t218 -23.5q250 0 394.5 118 t144.5 337q0 106 -32 184t-91.5 132t-138 93t-191.5 76q-154 51 -212 101.5t-58 130.5q0 86 70.5 135t183.5 49q90 0 158.5 -15.5t136.5 -41.5q10 -8 28 -9q37 0 47 31l41 113q8 10 9 28q0 37 -35 48l4 -3q-61 27 -175 52.5t-212 25.5q-238 0 -376 -113.5t-138 -320.5z" />
<glyph unicode="T" horiz-adv-x="1097" d="M-25 1335q0 -51 50 -51h395v-1065h-68q-49 0 -49 -51v-117q0 -51 49 -51h400q51 0 51 51v117q0 51 -51 51h-68v1065h395q51 0 51 51v125q0 51 -51 51h-1054q-49 0 -50 -51v-125z" />
<glyph unicode="U" horiz-adv-x="1468" d="M37 1343q0 -20 14.5 -34.5t34.5 -14.5h70v-778q0 -266 142 -409.5t445 -143.5q295 0 434.5 143.5t139.5 409.5v778h67q23 0 37.5 14.5t14.5 34.5v119q0 51 -52 51h-274q-51 0 -51 -51v-913q0 -186 -76 -269t-238 -83q-168 0 -243.5 82.5t-75.5 269.5v913q0 51 -51 51 h-289q-20 0 -34.5 -14t-14.5 -37v-119z" />
<glyph unicode="V" horiz-adv-x="1355" d="M-29 1343q0 -23 14.5 -37t34.5 -14h84l441 -1257q6 -12 19.5 -23.5t27.5 -11.5h168q14 0 28.5 11.5t18.5 23.5l440 1257h86q51 0 51 51v117q0 51 -51 51h-231q-39 0 -47 -36l2 2l-369 -1065l-364 1065l2 -2q-4 16 -18.5 26t-28.5 10h-259q-20 0 -34.5 -14t-14.5 -37v-117 z" />
<glyph unicode="W" horiz-adv-x="2045" d="M-29 1343q0 -51 52 -51h65l352 -1255h-2q4 -14 19.5 -25.5t31.5 -11.5h183q16 0 31.5 11.5t19.5 25.5h-2l287 993l286 -993h-2q4 -14 19.5 -25.5t31.5 -11.5h183q16 0 31.5 11.5t19.5 25.5h-2l373 1255h75q51 0 52 51v117q0 51 -52 51h-241q-16 0 -30.5 -10t-18.5 -26h2 l-289 -1020l-285 1020h2q-4 16 -19.5 26t-31.5 10h-180q-16 0 -31.5 -10t-19.5 -26h2l-289 -1022l-285 1022h2q-4 16 -19.5 26t-31.5 10h-237q-51 0 -52 -51v-117z" />
<glyph unicode="X" horiz-adv-x="1318" d="M-29 51q0 -23 14.5 -37t34.5 -14h226q8 0 23.5 8t19.5 17l-2 -2l360 540l361 -540l-2 2q4 -8 19 -16.5t24 -8.5h247q51 0 52 51v117q0 51 -52 51h-110l-385 578l329 495h123q20 0 35 14.5t15 36.5v117q0 23 -14.5 37t-35.5 14h-227q-8 0 -23.5 -8t-19.5 -16l2 2 l-321 -483l-324 483l2 -2q-4 8 -19.5 16t-23.5 8h-246q-51 0 -51 -51v-117q0 -51 51 -51h107l348 -520l-369 -553h-119q-20 0 -34.5 -14.5t-14.5 -36.5v-117z" />
<glyph unicode="Y" horiz-adv-x="1198" d="M-31 1343q0 -23 14.5 -37t34.5 -14h70l395 -630v-443h-67q-51 0 -51 -51v-117q0 -51 51 -51h399q51 0 51 51v117q0 51 -51 51h-67v451l354 622h76q51 0 51 51v117q0 51 -51 51h-191q-10 0 -25.5 -9t-19.5 -17l-324 -563l-350 565v-2q-6 8 -18 17t-25 9h-207 q-20 0 -34.5 -14t-14.5 -37v-117z" />
<glyph unicode="Z" horiz-adv-x="1107" d="M20 51q0 -23 14.5 -37t35.5 -14h1017q51 0 52 51v129q0 51 -52 51h-743l784 1074v155q0 51 -51 51h-995q-49 0 -49 -51v-129q0 -51 49 -51h717l-779 -1067v-162z" />
<glyph unicode="[" horiz-adv-x="483" d="M94 -236q0 -51 49 -51h301q20 0 35 14.5t15 36.5v125q0 20 -14.5 35t-35.5 15h-120v1353h120q20 0 35 14.5t15 36.5v125q0 20 -14.5 35t-35.5 15h-301q-49 0 -49 -50v-1704z" />
<glyph unicode="\" horiz-adv-x="731" d="M-25 1450q0 -18 7 -27l593 -1429l-2 4q4 -16 19.5 -25.5t30.5 -9.5q16 0 24 8l117 47l-4 -2q16 4 25.5 19.5t9.5 30.5q0 16 -9 24l-589 1430v-2q-10 31 -47 30q-18 0 -29 -8l-113 -43l2 2q-35 -8 -35 -49z" />
<glyph unicode="]" horiz-adv-x="483" d="M29 -111v-125q0 -51 47 -51h303q20 0 34.5 14.5t14.5 36.5v1704q0 20 -14.5 35t-34.5 15h-303q-20 0 -33.5 -14.5t-13.5 -35.5v-125q0 -51 47 -51h121v-1353h-121q-20 0 -33.5 -15t-13.5 -35z" />
<glyph unicode="^" horiz-adv-x="1323" d="M137 625q0 -16 9.5 -31.5t25.5 -20.5l-4 2l119 -53l-2 2q12 -6 24 -6t25.5 6t19.5 21l324 608l330 -612q10 -27 43 -27q16 0 26 6l123 55l-4 -2q16 4 25.5 19.5t9.5 32.5q0 20 -10 30l4 -8l-441 815l2 -4q-4 14 -18 22.5t-27 8.5h-118q-12 0 -27.5 -8t-20.5 -23l3 4 l-435 -815l4 8q-10 -10 -10 -30z" />
<glyph unicode="_" horiz-adv-x="1024" d="M-31 -86v-115q0 -47 51 -47h984q51 0 51 47v115q0 47 -51 47h-984q-51 0 -51 -47z" />
<glyph unicode="`" horiz-adv-x="983" d="M250 1409q0 -20 14 -35l-2 4l287 -356l-2 4q4 -8 19.5 -16.5t21.5 -8.5h135q49 0 49 50q0 8 -6 22l-4 8l-266 355l2 -4q-4 8 -19.5 16t-23.5 8h-154q-23 0 -37 -14.5t-14 -32.5z" />
<glyph unicode="a" horiz-adv-x="1060" d="M29 350q0 -174 103.5 -274.5t289.5 -100.5q86 0 156.5 27t117.5 68q45 -70 160 -70q55 0 113.5 24.5t109.5 65.5l11 49l-54 88q-16 16 -39 17q-10 0 -26 -8l-4 -3q-4 -4 -6 -4t-5 -2q-27 -14 -38 -14v432q0 193 -104.5 296t-317.5 103q-174 0 -316 -73q-29 -10 -28 -47 q0 -20 6 -27l39 -94v2q10 -31 45 -31q23 0 32 10l-8 -4q94 47 205 47q193 0 193 -159v-4q-47 27 -106.5 43t-123.5 16q-186 0 -295.5 -104.5t-109.5 -268.5zM285 350q0 72 44 117t126 45q100 0 155.5 -44t55.5 -114q0 -74 -58.5 -120t-146.5 -46q-86 0 -131 44t-45 118z" />
<glyph unicode="b" horiz-adv-x="1167" d="M-55 1511q0 -20 10 -30l43 -72q16 -16 39 -16t35 12l-6 -2q29 18 51 18q4 0 4 -26v-1344q0 -51 51 -51h154q51 0 51 51v21q55 -43 129 -70t160 -27q221 0 347 153t126 390q0 244 -125 392.5t-363 148.5q-76 0 -146.5 -23.5t-127.5 -66.5l-2 458q0 90 -48 148.5t-149 58.5 q-49 0 -106.5 -22.5t-106.5 -59.5h2q-22 -14 -22 -41zM377 518q0 133 72.5 225.5t195.5 92.5q115 0 171 -89.5t56 -228.5q0 -137 -56 -226t-171 -89q-123 0 -195.5 91t-72.5 224z" />
<glyph unicode="c" horiz-adv-x="894" d="M43 510q0 -240 137 -387.5t379 -147.5q82 0 163 20.5t142 47.5q10 4 20.5 19.5t10.5 27.5v129q0 23 -15.5 37t-35.5 14q-12 0 -25 -6q-68 -37 -128 -52t-122 -15q-125 0 -195.5 87t-70.5 226q0 133 65.5 221t194.5 88q63 0 115.5 -12t95.5 -31q10 -8 29 -8q39 0 49 35 l-2 -4l47 112v15q0 33 -39 53q-70 29 -138.5 47t-158.5 18q-115 0 -210 -38.5t-164.5 -111.5t-106.5 -171t-37 -213z" />
<glyph unicode="d" horiz-adv-x="1193" d="M68 518q0 -244 123.5 -393.5t355.5 -149.5q80 0 158.5 29t138.5 80q45 -84 170 -84q53 0 111.5 24.5t111.5 67.5l10 49l-51 82q-18 25 -43 25q-18 0 -29 -10h-2q-18 -12 -29.5 -17.5t-17.5 -5.5q-2 0 -2 25v1187q0 90 -48 148.5t-148 58.5q-49 0 -106.5 -22.5 t-106.5 -59.5h2q-23 -14 -23 -41q0 -20 10 -30l-4 8l47 -82q10 -14 39 -14q23 0 35 12l-4 -2q29 18 47 18q6 0 6 -26v-424q-113 88 -284 88q-106 0 -193.5 -40t-148 -112.5t-93 -172t-32.5 -216.5zM336 518q0 137 57.5 227.5t169.5 90.5q117 0 186.5 -92.5t69.5 -225.5 t-70.5 -225t-189.5 -92q-113 0 -168 90t-55 227z" />
<glyph unicode="e" horiz-adv-x="1024" d="M68 510q0 -233 130 -384t373 -151q119 0 194 18.5t142 51.5q27 14 27 45v127q0 23 -14.5 37t-34.5 14q-12 0 -25 -6q-55 -29 -120.5 -47t-147.5 -18q-109 0 -172.5 60t-81.5 149h616q51 0 52 51v65q0 254 -117 388t-336 134q-221 0 -353 -147t-132 -387zM338 618 q20 104 71.5 158.5t137.5 54.5t133 -55t57 -158h-399z" />
<glyph unicode="f" horiz-adv-x="606" d="M-14 874q0 -49 49 -49h123v-774q0 -51 49 -51h151q20 0 35 14.5t15 36.5v774h170q51 0 51 49v111q0 51 -51 51h-170v174q0 94 21.5 146.5t80.5 52.5q23 0 46.5 -7t51.5 -18q10 -10 33 -10q12 0 26.5 9.5t18.5 21.5l43 111v10q0 31 -22 45q-57 35 -105.5 49t-105.5 14 q-90 0 -156 -31.5t-105.5 -85t-58 -118t-18.5 -133.5v-230h-123q-49 0 -49 -51v-111z" />
<glyph unicode="g" horiz-adv-x="1161" d="M68 516q0 -244 124.5 -392.5t358.5 -148.5q72 0 143.5 22.5t130.5 65.5q0 -63 -13 -119.5t-43 -100.5t-85 -70.5t-135 -26.5q-88 0 -156.5 17.5t-130.5 43.5l2 -2q-12 6 -24 7q-20 0 -35 -14.5t-15 -35.5v-133q0 -14 10.5 -28.5t22.5 -16.5h-2q72 -31 154 -47t184 -16 q258 0 389 150.5t131 410.5v901q0 51 -51 51h-151q-51 0 -52 -51v-14q-121 88 -284 88q-219 0 -346 -151.5t-127 -389.5zM334 516q0 139 55 228.5t170 89.5q123 0 194.5 -92.5t71.5 -225.5q0 -131 -72.5 -223t-193.5 -92q-115 0 -170 89t-55 226z" />
<glyph unicode="h" horiz-adv-x="1122" d="M-55 1509q0 -20 10 -30l39 -64q18 -25 43 -24q14 0 31 10q29 20 49 20q4 0 4 -26v-1344q0 -51 51 -51h152q51 0 51 51v455q0 141 57 233t172 92q76 0 113 -49t37 -133v-14l-2 -412v-8q0 -113 46 -170t152 -57q53 0 112.5 25.5t113.5 66.5l8 49l-51 82q-18 25 -41 25 q-12 0 -37 -13q-12 -8 -24.5 -14t-18.5 -6q-2 0 -2 16v457q0 180 -96.5 281.5t-297.5 101.5q-137 0 -241 -80v446q0 92 -47 150.5t-148 58.5q-51 0 -109.5 -22.5t-105.5 -59.5h2q-22 -14 -22 -43z" />
<glyph unicode="i" horiz-adv-x="507" d="M-16 909q0 -20 10 -30l37 -64q18 -25 43 -24q14 0 30 10q25 20 46 20q4 0 4 -26l-2 -574v-8q0 -111 44 -168t146 -57q51 0 108.5 25.5t108.5 66.5l8 47l-49 82q-20 27 -41 27q-8 0 -22 -7l-9 -4q-10 -8 -23 -15t-22 -7q-2 0 -2 24l2 598v6q0 88 -47 145.5t-143 57.5 q-47 0 -103.5 -22.5t-103.5 -59.5h2q-22 -14 -22 -43zM98 1348q0 -70 43 -114t109 -44q68 0 110.5 44t42.5 114q0 63 -45 110t-108 47q-61 0 -106.5 -47t-45.5 -110z" />
<glyph unicode="j" horiz-adv-x="475" d="M-137 -274v-117q0 -18 20 -39q10 -10 21 -10q47 -20 84 -30.5t94 -10.5q166 0 240.5 94t74.5 274v944q0 90 -46 149.5t-142 59.5q-45 0 -101.5 -22.5t-103.5 -59.5h2q-23 -14 -22 -43q0 -20 10 -30l37 -64l-2 6q10 -31 45 -30q20 0 32 12l-4 -2q27 18 48 18q2 0 2 -26 v-895q0 -86 -17.5 -127t-81.5 -41q-35 0 -60.5 9t-53.5 26h-2l8 -4q-10 10 -33 10q-20 0 -34.5 -14t-14.5 -37zM-96 -440h6l4 -2h2zM80 1356q0 -72 44 -118t114 -46t113.5 46t43.5 118q0 68 -46 117t-111 49q-66 0 -112 -49t-46 -117z" />
<glyph unicode="k" horiz-adv-x="1026" d="M-55 1509q0 -20 10 -30l39 -64q18 -25 43 -24q14 0 31 10q29 20 49 20q4 0 4 -26v-1344q0 -51 51 -51h154q51 0 51 51v377l121 82l192 -381q68 -129 193 -129q80 0 140 31.5t107 74.5v54l-53 76v-3q-14 23 -39 23q-8 0 -22 -6l-8 -4q-12 -10 -26.5 -19.5t-23.5 -9.5 q-8 0 -14 6t-14 23l-219 411l299 201q8 8 8 31q0 16 -10 37l-66 98q-14 23 -43 23q-12 0 -29 -9l-493 -348v740q0 88 -48 146t-149 58q-49 0 -107.5 -22.5t-107.5 -59.5h2q-22 -14 -22 -43z" />
<glyph unicode="l" horiz-adv-x="479" d="M-53 1509q0 -20 10 -30l-4 8l39 -72q18 -25 45 -24q20 0 33 12l-4 -2q29 20 47 20q2 0 2 -26v-1172q0 -119 43 -177t147 -58q53 0 109.5 24.5t107.5 67.5l10 47l-49 82q-20 27 -43 27q-18 0 -28 -11l-9 -4q-29 -18 -38 -18q-2 0 -3 26v1196q0 92 -46 150.5t-144 58.5 q-47 0 -103.5 -22.5t-101.5 -59.5h2q-22 -14 -22 -43z" />
<glyph unicode="m" horiz-adv-x="1744" d="M-14 899q0 -20 10 -31l37 -63q18 -25 45 -25q14 0 31 11q29 20 49 20q6 0 6 -27v-733q0 -51 51 -51h154q51 0 51 51v449q0 141 49 230t162 89q74 0 103.5 -57t29.5 -160v-551q0 -51 51 -51h160q51 0 51 51v449q0 141 48 230t161 89q74 0 104.5 -49t30.5 -139v-420 q0 -109 47 -166t154 -57q53 0 114.5 25.5t112.5 66.5l12 45l-55 84q-18 25 -41 24q-12 0 -37 -12q-10 -6 -24.5 -13t-20.5 -7v467q0 180 -92 278t-291 98q-94 0 -172 -35.5t-127 -101.5q-45 66 -120.5 101.5t-184.5 35.5q-82 0 -150.5 -27.5t-117.5 -76.5q-20 39 -59 60.5 t-99 21.5q-51 0 -106.5 -22.5t-106.5 -59.5h2q-22 -14 -22 -41z" />
<glyph unicode="n" horiz-adv-x="1161" d="M-14 899q0 -20 10 -31l37 -63q18 -25 45 -25q20 0 33 13l-5 -2q29 20 50 20q6 0 6 -27v-733q0 -23 14 -37t35 -14h154q49 0 49 51v449q0 137 57 228t172 91q76 0 113 -51t37 -141v-416q0 -109 46 -166t152 -57q53 0 112.5 25.5t113.5 66.5l12 45l-53 84q-18 25 -43 24 q-12 0 -37 -12q-12 -8 -24.5 -14t-18.5 -6v24l-2 441q0 178 -97.5 278t-296.5 100q-84 0 -154.5 -29.5t-123.5 -80.5q-20 41 -60 64.5t-104 23.5q-49 0 -103.5 -22.5t-105.5 -59.5h2q-22 -14 -22 -41z" />
<glyph unicode="o" horiz-adv-x="1062" d="M31 510q0 -242 135 -388.5t366 -146.5q233 0 367.5 146.5t134.5 388.5t-134 388t-368 146q-233 0 -367 -146t-134 -388zM293 510q0 135 61.5 227t177.5 92q117 0 178.5 -92t61.5 -227t-61.5 -226t-178.5 -91t-178 91t-61 226z" />
<glyph unicode="p" horiz-adv-x="1196" d="M-14 909q0 -20 10 -30l37 -64q18 -25 45 -24q20 0 33 12l-5 -2q29 20 50 20q6 0 6 -28v-1199q0 -51 49 -51h154q51 0 51 51v467q111 -86 289 -86q104 0 190 40t147.5 114t93 173t31.5 214q0 244 -123.5 392.5t-355.5 148.5q-84 0 -163 -30t-140 -85q-45 92 -170 92 q-49 0 -103.5 -22.5t-105.5 -59.5h2q-22 -14 -22 -43zM416 516q0 133 70.5 225.5t189.5 92.5q113 0 168 -90.5t55 -227.5t-57.5 -226t-169.5 -89q-117 0 -186.5 92t-69.5 223z" />
<glyph unicode="q" horiz-adv-x="1161" d="M68 516q0 -244 124.5 -392.5t358.5 -148.5q72 0 144.5 24t129.5 64v-469q0 -51 52 -51h151q51 0 51 51v1389q0 51 -51 51h-151q-51 0 -52 -51v-10q-115 84 -288 84q-109 0 -196 -40t-148.5 -114t-93 -172t-31.5 -215zM334 516q0 139 55 228.5t170 89.5q123 0 194.5 -92.5 t71.5 -225.5q0 -131 -72.5 -223t-193.5 -92q-115 0 -170 89t-55 226z" />
<glyph unicode="r" horiz-adv-x="770" d="M-14 899q0 -23 10 -33l37 -61l-2 6q10 -31 45 -31q14 0 30 11q23 18 48 18q4 0 4 -27v-731q0 -51 51 -51h149q49 0 50 51v375q0 88 21.5 170t59.5 139q45 68 117 68q31 0 56.5 -9.5t42.5 -21.5q16 -10 30 -10q39 0 47 39l-2 -4l41 112q8 10 8 27q0 12 -8 26.5t-22 18.5 l6 -4q-37 25 -81 40t-110 15q-141 0 -239 -117q-35 104 -162 105q-49 0 -105.5 -23.5t-111.5 -62.5q-10 -10 -10 -35z" />
<glyph unicode="s" horiz-adv-x="798" d="M29 106q0 -10 10 -26.5t22 -18.5q68 -35 153 -60.5t198 -25.5q76 0 145.5 19.5t125.5 60.5t89 106.5t33 153.5q0 143 -82 213t-250 111q-94 20 -142 45t-48 57q0 90 149 90q57 0 106.5 -13t96.5 -32q4 -6 10 -6q10 -8 33 -8q33 0 45 27l41 92q8 8 8 29q0 12 -7 25t-22 20 l5 -2q-78 43 -160 62t-156 19q-168 0 -281.5 -83.5t-113.5 -237.5q0 -76 26.5 -128t73.5 -86t105.5 -54.5t146.5 -44.5v2q88 -23 127 -46.5t39 -68.5q0 -51 -46 -76.5t-112 -25.5q-84 0 -153.5 24.5t-128.5 61.5q-6 2 -13 6q-18 8 -24 8q-20 0 -34.5 -14.5t-14.5 -34.5v-140 zM631 809q0 10 4 25.5t18 15.5q12 0 33 -21l-39 -38z" />
<glyph unicode="t" horiz-adv-x="630" d="M-14 870q0 -51 49 -51h121v-530q0 -162 71.5 -232.5t218.5 -70.5q55 0 120 19.5t108 41.5l18 35v119q0 23 -14 37t-35 14q-12 0 -37 -12q-18 -12 -57 -23.5t-74 -11.5q-41 0 -55 23.5t-14 82.5v508h196q51 0 51 51v109q0 49 -51 49h-196v215q0 49 -50 49h-149 q-23 0 -37 -14t-14 -35v-215h-121q-49 0 -49 -49v-109z" />
<glyph unicode="u" horiz-adv-x="1159" d="M-23 899q0 -20 11 -31l37 -63q18 -25 45 -25q20 0 32 13l-4 -2q29 20 49 20q4 0 5 -18v-439q0 -178 96 -278.5t297 -100.5q84 0 152.5 30t121.5 79q43 -84 160 -84q55 0 114.5 24.5t110.5 65.5l10 49l-51 80q-18 25 -43 25q-10 0 -26 -8l-4 -3q-4 -4 -7 -4q-2 0 -4 -2 q-27 -14 -39 -14v758q0 49 -51 49h-151q-51 0 -52 -49v-449q0 -137 -56 -228t-173 -91q-76 0 -111.5 51t-35.5 141v426q0 86 -49.5 142.5t-149.5 56.5q-49 0 -106.5 -21.5t-106.5 -58.5h2q-23 -14 -23 -41z" />
<glyph unicode="v" horiz-adv-x="1028" d="M-49 895q0 -20 10 -31l37 -61l-2 6q10 -31 45 -31q12 0 25 6q33 18 53 19q6 0 26 -45l7 -17v2l268 -710q4 -12 18.5 -22.5t28.5 -10.5h170q12 0 27.5 10t19.5 23v-2l375 887l2 8v6q0 23 -33 47l-121 43q-10 8 -26 8q-39 0 -47 -35l2 4l-271 -655l-164 455v2 q-37 109 -81 164t-136 55q-106 0 -213 -82h2q-22 -14 -22 -43zM399 805l2 -6z" />
<glyph unicode="w" horiz-adv-x="1566" d="M-49 897q0 -12 4 -16l2 -4l49 -72q18 -25 39 -25q14 0 31 11q16 12 43 12q20 0 41 -58l229 -710l-2 2q4 -14 19.5 -25.5t29.5 -11.5h172q10 0 25.5 10t19.5 21l201 405l131 -401l-2 2q4 -14 19.5 -25.5t31.5 -11.5h172q14 0 28.5 10t18.5 23l344 891l2 6v4q0 29 -34 47 l-135 47l-5 2h-6q-29 0 -47 -35l-237 -633l-131 422q-20 61 -36 98.5t-39.5 69t-61.5 50t-91 18.5q-55 0 -109.5 -22.5t-111.5 -65.5q-12 -12 -12 -35q0 -12 8 -25q4 -6 4 -8l39 -59q18 -25 43 -25q14 0 31 11q25 16 45 16q12 0 21 -10.5t26 -46.5l-205 -422l-143 458 q-37 117 -82 175.5t-144 58.5q-102 0 -223 -88q-12 -12 -12 -35z" />
<glyph unicode="x" horiz-adv-x="989" d="M-4 872q0 -14 8 -30l47 -64v2q14 -23 41 -22q23 0 35 12l-4 -2q31 25 53 25q10 0 20.5 -10.5t26.5 -37.5l139 -217l-342 -378v2q-14 -14 -14 -37t17 -37h2l79 -88q12 -12 37 -13q25 0 37 13l307 344l142 -219q33 -53 72.5 -84t109.5 -31q57 0 115.5 34t113.5 87l2 47 l-53 76v-2q-14 23 -41 22q-23 0 -35 -12h2q-27 -23 -51 -23q-18 0 -49 52l-158 241l314 348v-2q14 14 14 37q0 14 -14 33l-2 2l-86 92l-2 2q-25 8 -31 8q-10 0 -27 -6q-4 -4 -6 -4l-285 -317l-122 190l-2 2q-37 55 -74 85t-103 30q-57 0 -113.5 -32t-107.5 -81 q-12 -12 -12 -37z" />
<glyph unicode="y" horiz-adv-x="1114" d="M-23 909q0 -20 11 -30l37 -64q18 -25 43 -24q14 0 30 10q29 20 49 20q2 0 3 -20v-443q0 -180 96 -281.5t295 -101.5q72 0 135 25t115 66q0 -154 -56.5 -237t-208.5 -83q-82 0 -149.5 16.5t-120.5 42.5l2 -2q-12 6 -25 7q-47 0 -47 -50v-131q0 -37 31 -47h-2 q63 -27 143 -43t179 -16q252 0 374.5 143.5t122.5 419.5v897q0 51 -51 51h-152q-49 0 -49 -51v-469q-4 -135 -60 -222t-167 -87q-76 0 -111.5 52t-35.5 142v432q0 88 -49.5 145.5t-147.5 57.5q-49 0 -107.5 -22.5t-105.5 -59.5h2q-23 -14 -23 -43z" />
<glyph unicode="z" horiz-adv-x="886" d="M0 43q0 -23 14.5 -37t34.5 -14h14q53 14 125 23.5t146 9.5q47 0 141 -21q10 0 14 -2q82 -18 142 -18q127 0 210 78.5t85 226.5l-31 39l-102 10h-7q-39 0 -49 -39q-14 -74 -75 -74q-33 0 -82 13q-37 12 -74 18t-90 6q-14 0 -23 -2l502 596v115q0 20 -14.5 34.5t-36.5 14.5 h-735q-20 0 -35 -14.5t-15 -34.5v-125q0 -20 14.5 -34.5t35.5 -14.5h428l-537 -637v-117z" />
<glyph unicode="{" horiz-adv-x="602" d="M23 555q0 -23 14 -37t35 -14q45 0 79.5 -48t34.5 -128v-314q0 -137 77 -219t173 -82h133q20 0 34.5 14.5t14.5 36.5v125q0 20 -14 35t-35 15h-102q-25 0 -35 28.5t-10 75.5v311q0 94 -30 159t-77 103q47 39 77 102.5t30 153.5v318q0 47 10 74.5t35 27.5h102 q20 0 34.5 14.5t14.5 36.5v125q0 20 -14 35t-35 15h-133q-94 0 -172 -82t-78 -219v-316q0 -78 -34.5 -127t-79.5 -49q-20 0 -34.5 -14.5t-14.5 -34.5v-121z" />
<glyph unicode="|" horiz-adv-x="360" d="M96 14q0 -51 47 -51h107q47 0 47 51v1485q0 49 -47 49h-107q-47 0 -47 -49v-1485z" />
<glyph unicode="}" horiz-adv-x="602" d="M23 -111v-125q0 -23 14 -37t35 -14h133q98 0 174 82t76 219v314q0 78 37.5 127t89.5 49l36 39v133q0 20 -14 34.5t-35 14.5q-45 0 -79.5 49t-34.5 127v316q0 137 -78 219t-172 82h-133q-20 0 -34.5 -14.5t-14.5 -35.5v-125q0 -23 14 -37t35 -14h102q27 0 36 -27.5 t9 -74.5v-318q0 -90 30 -153.5t75 -102.5q-45 -39 -75 -103t-30 -159v-311q0 -47 -9 -75.5t-36 -28.5h-102q-20 0 -34.5 -15t-14.5 -35z" />
<glyph unicode="~" horiz-adv-x="1320" d="M166 549q0 -27 22 -41l-2 2l84 -61q16 -10 31 -11q31 0 45 31q0 4 2 6q0 -2 -2 -6h2l2 2q27 37 49.5 55.5t59.5 18.5t72.5 -11.5t91.5 -35.5l6 -2q8 -2 16 -7l21 -10h-2l4 -2q70 -29 116.5 -42t100.5 -13q106 0 171.5 51t139.5 154l-8 49l-94 69q-16 8 -29 9 q-27 0 -49 -31q-2 -2 -2 -4q0 2 2 6v2q-6 -6 -8 -14q-25 -33 -47.5 -49.5t-61.5 -16.5t-72.5 10.5t-83.5 30.5l-10 5q-6 3 -12 5l-16 9q-12 6 -15 6l2 -2l-8 4q-4 0 -8 2h2l-16 6q-61 23 -101.5 34t-87.5 11q-100 0 -163.5 -47t-133.5 -143l-4 -7q-6 -10 -6 -22zM344 463 q2 0 2 2l2 2h-2q0 -4 -2 -4z" />
<glyph unicode="&#xa1;" horiz-adv-x="497" d="M113 887q0 -70 45 -120t108 -50t108.5 50t45.5 120t-46 120t-108 50q-59 0 -106 -50t-47 -120zM145 -406q0 -51 48 -51h147q20 0 34.5 14.5t14.5 36.5l-10 947q0 18 -16.5 34.5t-32.5 16.5h-127q-18 0 -32.5 -16.5t-14.5 -34.5z" />
<glyph unicode="&#xa2;" horiz-adv-x="1107" d="M156 756q0 -201 97 -339t277 -179v-189q0 -51 50 -51h100q51 0 51 51v178q68 8 126 25.5t106 38.5q8 4 18 20.5t10 26.5v129q0 23 -14 37t-35 14q-12 0 -24 -6q-53 -29 -97.5 -44t-89.5 -19v608q78 -10 143 -39q10 -8 29 -8q37 0 47 34l-2 -4l41 103q6 8 6 26 q0 39 -34 50l4 -2q-47 23 -104.5 41t-129.5 24v170q0 51 -51 51h-100q-49 0 -50 -51v-182q-172 -45 -273 -184.5t-101 -329.5zM412 756q0 88 29.5 158.5t88.5 107.5v-535q-57 39 -87.5 109t-30.5 160z" />
<glyph unicode="&#xa3;" horiz-adv-x="1107" d="M20 715q0 -51 52 -51h180l4 -60v-65q0 -4 2 -25v-27q0 -57 -9 -104t-34 -80q-25 -37 -58.5 -58.5t-95.5 -43.5q-12 -4 -23 -18.5t-11 -28.5v-111q0 -23 14 -37t35 -14h8q106 31 175 44t155 13q70 0 188 -33q113 -33 180 -32q147 0 242.5 83t97.5 236l-32 33l-109 16h-8 q-39 0 -47 -37h2q-23 -78 -107 -77q-35 0 -116 20l6 -4q-2 2 -6 2q-6 0 -9 2q-94 27 -166 27q-20 0 -61 -4h-6q25 66 40 136t15 150q0 39 -2 58v-2l-4 41h299q51 0 51 51v123q0 51 -51 51h-313l-4 110v11l-2 10v18q0 125 49 196t161 71q74 0 133.5 -20.5t131.5 -61.5l-9 4 q10 -10 31 -10q29 0 43 22l62 90q12 25 12 35q0 23 -12 35q-88 63 -179.5 100t-212.5 37q-92 0 -176 -27.5t-150.5 -86t-104.5 -147.5t-38 -206v-35l7 -145h-168q-51 0 -52 -51v-123z" />
<glyph unicode="&#xa5;" horiz-adv-x="1126" d="M-16 1343q0 -23 14 -37t35 -14h67l271 -467h-166q-49 0 -49 -49v-106q0 -23 14 -37.5t35 -14.5h268v-59h-268q-20 0 -34.5 -14.5t-14.5 -36.5v-105q0 -23 14 -37t35 -14h268v-133h-67q-51 0 -52 -51v-117q0 -51 52 -51h391q51 0 51 51v117q0 51 -51 51h-68v133h270 q51 0 52 51v105q0 51 -52 51h-270v59h270q51 0 52 52v106q0 49 -52 49h-182l242 467h74q51 0 51 51v117q0 51 -51 51h-187q-33 0 -43 -26l-299 -576l-323 576q-4 8 -19.5 17t-25.5 9h-203q-20 0 -34.5 -14t-14.5 -37v-117z" />
<glyph unicode="&#xa6;" horiz-adv-x="360" d="M96 14q0 -51 47 -51h107q47 0 47 51v496q0 49 -47 49h-107q-47 0 -47 -49v-496zM96 1004q0 -51 47 -52h107q47 0 47 52v495q0 49 -47 49h-107q-47 0 -47 -49v-495z" />
<glyph unicode="&#xa7;" horiz-adv-x="1083" d="M123 651q0 -129 63.5 -209t175.5 -143l240 -133q59 -33 86 -60.5t27 -68.5q0 -51 -49.5 -77t-128.5 -26q-88 0 -163 23t-169 68q-10 6 -27 6q-20 0 -34.5 -14.5t-14.5 -34.5v-142q0 -12 9 -27.5t22 -19.5q100 -43 183 -62.5t206 -19.5q82 0 156.5 22.5t133 66.5 t92.5 107.5t34 141.5q0 96 -36 159.5t-114 119.5q184 113 184 295q0 133 -63.5 215t-190.5 149l-245 135q-41 23 -63.5 45.5t-22.5 55.5q0 57 45 84.5t123 27.5q123 0 272 -71q10 -10 31 -11q39 0 49 35l-2 -4l49 102l-2 -2q6 12 6 23q0 20 -27 41q-76 43 -170 74.5 t-213 31.5q-172 0 -292.5 -86t-120.5 -245q0 -98 33.5 -161t109.5 -116q-182 -111 -182 -295zM377 666q0 55 37 95t98 64l63 -32q100 -55 137.5 -90t37.5 -93q0 -57 -38 -97t-106 -60l-53 28q-100 55 -138 92.5t-38 92.5z" />
<glyph unicode="&#xa8;" horiz-adv-x="1005" d="M178 1231q0 -57 45 -99t109 -42q63 0 108 40.5t45 100.5q0 57 -45 99t-108 42t-108.5 -42t-45.5 -99zM559 1231q0 -59 44 -100t110 -41q63 0 108 40.5t45 100.5q0 57 -45 99t-108 42q-66 0 -110 -42t-44 -99z" />
<glyph unicode="&#xa9;" horiz-adv-x="1607" d="M31 756q0 -166 62.5 -311.5t172 -254t254 -168t303.5 -59.5q160 0 304.5 59.5t254 168t172 254t62.5 311.5q0 168 -62.5 313t-172 253t-254 167t-304.5 59t-303 -59t-253.5 -167t-173 -253t-62.5 -313zM264 756q0 121 43 228.5t120 187t179.5 123.5t216.5 44 q115 0 217.5 -44t179 -123.5t119.5 -187t43 -228.5t-43 -227.5t-119.5 -186.5t-179 -124t-217.5 -44t-217 44t-179 124t-120 186.5t-43 227.5zM350 756q0 -113 36 -206t101.5 -160.5t154.5 -103.5t196 -36q86 0 154.5 16.5t121.5 40.5q8 4 18.5 20.5t10.5 26.5v117 q0 51 -47 51q-12 0 -25 -6q-53 -27 -102 -40t-115 -13q-111 0 -182.5 75.5t-71.5 215.5q0 129 64.5 213t183.5 84q43 0 83 -7.5t95 -27.5q10 -6 29 -6q39 0 49 34l-2 -4l37 93q8 10 8 26q0 39 -35 49l4 -2q-59 27 -126.5 42.5t-149.5 15.5q-106 0 -196.5 -36t-156 -103.5 t-101.5 -161.5t-36 -207z" />
<glyph unicode="&#xaa;" horiz-adv-x="720" d="M41 1063q0 -113 70.5 -175.5t199.5 -62.5q102 0 174 49q35 -37 101 -36q39 0 79 17t70 48l4 45l-34 58q-16 16 -39 16h-13v213q0 123 -72.5 190.5t-220.5 67.5q-121 0 -210 -45q-31 -8 -31 -43q0 -18 6 -29l22 -61l-2 2q8 -35 48 -35q-74 -27 -113 -84t-39 -135z M229 1290q45 18 107 19q57 0 86 -25q-53 16 -109 16q-43 0 -84 -10zM256 1063q0 63 86 63q51 0 74.5 -17t23.5 -44q0 -63 -92 -64q-47 0 -69.5 16.5t-22.5 45.5z" />
<glyph unicode="&#xab;" horiz-adv-x="985" d="M88 520q0 -23 12 -35l-2 7l279 -418q14 -23 37 -23q10 0 35 12l100 66q25 18 24 41q0 10 -12 35l-207 315l207 316q12 25 12 34q0 20 -24 39l-100 68q-25 12 -35 12q-23 0 -37 -22l-283 -424q-6 -9 -6 -23zM451 520q0 -23 12 -35l-2 7l274 -412q6 -14 17.5 -21.5 t23.5 -7.5q10 0 35 12l100 66q25 18 25 41q0 10 -12 35l-207 315l207 316q12 25 12 34q0 20 -25 39l-100 68q-25 12 -35 12q-12 0 -23.5 -6t-17.5 -22l-278 -418q-6 -9 -6 -23z" />
<glyph unicode="&#xac;" horiz-adv-x="1124" d="M-4 707q0 -51 51 -52h834v-254q0 -49 49 -49h145q23 0 37 14.5t14 34.5v441q0 49 -51 49h-1028q-51 0 -51 -49v-135z" />
<glyph unicode="&#xad;" horiz-adv-x="641" d="M57 375q0 -47 52 -47h462q49 0 50 47v123q0 47 -50 47h-462q-51 0 -52 -47v-123z" />
<glyph unicode="&#xae;" horiz-adv-x="1607" d="M31 756q0 -166 62.5 -311.5t172 -254t254 -168t303.5 -59.5q160 0 304.5 59.5t254 168t172 254t62.5 311.5q0 168 -62.5 313t-172 253t-254 167t-304.5 59t-303 -59t-253.5 -167t-173 -253t-62.5 -313zM264 756q0 113 37 213t105 178v-43q0 -51 51 -51h30v-590h-30 q-51 0 -51 -51v-47q-68 78 -105 178t-37 213zM508 272h235q51 0 52 52v88q0 51 -52 51h-28v199h86q43 -23 65.5 -70t40.5 -119v2q27 -104 59.5 -153.5t116.5 -49.5h56q-139 -98 -316 -98q-178 0 -315 98zM512 1243q137 96 311 96q115 0 217.5 -44t179 -123.5t119.5 -187 t43 -228.5q0 -98 -27.5 -187.5t-80.5 -162.5v6q0 51 -51 51h-41q-16 0 -25.5 17.5t-19.5 56.5l-2 8l-2 10q-16 53 -31 89t-41 65q45 27 65 47q82 78 82 196q0 139 -91 215t-269 76h-336zM715 856v193h119q129 0 129 -91q0 -102 -129 -102h-119z" />
<glyph unicode="&#xaf;" horiz-adv-x="1009" d="M152 954q0 -47 49 -47h645q51 0 51 47v97q0 45 -51 45h-645q-49 0 -49 -45v-97z" />
<glyph unicode="&#xb0;" horiz-adv-x="776" d="M84 1245q0 -66 24.5 -125t69.5 -104t104.5 -69.5t125.5 -24.5t125 24.5t104 69.5t69.5 104.5t24.5 124.5q0 137 -94 230.5t-229 93.5t-229.5 -93.5t-94.5 -230.5zM299 1245q0 51 31.5 85t77.5 34q45 0 76.5 -34t31.5 -85q0 -49 -31.5 -83t-76.5 -34t-77 34t-32 83z" />
<glyph unicode="&#xb1;" horiz-adv-x="1124" d="M16 51q0 -51 52 -51h1028q51 0 51 51v142q0 51 -51 51h-398q6 12 7 28v326h391q23 0 37 14.5t14 34.5v144q0 51 -51 51h-391v323q0 51 -50 52h-147q-20 0 -34.5 -14.5t-14.5 -37.5v-323h-391q-51 0 -52 -51v-144q0 -20 14.5 -34.5t37.5 -14.5h391v-326q0 -16 6 -28h-397 q-51 0 -52 -51v-142z" />
<glyph unicode="&#xb2;" horiz-adv-x="1165" d="M229 707q0 -20 13.5 -36t33.5 -16h9q8 2 18 2q16 2 19 2q37 4 53 7h4q4 2 6 2q66 10 107 10q43 0 104 -10h-2q4 0 12 -2q6 0 12 -2q31 -6 78 -7q104 0 166 53.5t62 178.5l-33 33l-94 12h-9q-18 0 -30.5 -12.5t-16.5 -28.5q-6 -18 -28 -19q-14 0 -23 3v2q-6 2 -22 6 q-12 2 -19 4q127 92 187.5 169t60.5 173q0 129 -82 199.5t-235 70.5q-90 0 -172 -39t-134 -90h2q-16 -12 -16 -35q0 -14 10 -30l58 -76v2q14 -23 39 -23q23 0 36 15h-2q33 31 74 49t84 18q59 0 79.5 -19.5t20.5 -45.5q0 -41 -34.5 -83t-130.5 -118l-244 -190l4 2 q-8 -4 -16.5 -19.5t-8.5 -23.5v-88z" />
<glyph unicode="&#xb3;" horiz-adv-x="1161" d="M258 762q0 -10 9 -26.5t22 -18.5q74 -35 137 -50.5t145 -15.5q139 0 243 70t104 199q0 55 -24 103t-65 81q63 59 64 153q0 125 -87 185.5t-224 60.5q-84 0 -154 -28.5t-143 -73.5q-25 -18 -25 -43q0 -20 12 -33l47 -72q14 -23 43 -22q20 0 31 10q0 2 2 2h-2l4 2 q53 27 89 40t79 13q88 0 88 -51q0 -29 -28.5 -41t-73.5 -12h-51q-49 0 -49 -49v-105q0 -20 14 -34.5t35 -14.5l53 2h10q49 0 79 -17.5t30 -49.5q0 -31 -27 -51.5t-74 -20.5q-70 0 -121 14.5t-118 51.5l8 -5q-10 10 -33 11q-20 0 -34.5 -14.5t-14.5 -34.5v-115z" />
<glyph unicode="&#xb4;" horiz-adv-x="983" d="M250 1051q0 -49 49 -50h133q8 0 20.5 7.5t18.5 17.5v-4l289 356l-2 -4q12 12 12 35q0 18 -13.5 32.5t-35.5 14.5h-156q-8 0 -21.5 -7t-19.5 -15l2 2l-266 -355l2 4q-12 -11 -12 -34z" />
<glyph unicode="&#xb5;" horiz-adv-x="1159" d="M-18 909q0 -20 10 -30l37 -64q18 -25 45 -24q14 0 30 10q25 20 48 20q4 0 4 -28v-1209q0 -23 14 -37t35 -14h145q51 0 51 51v439q76 -47 185 -48q72 0 131 29t104 76q49 -80 158 -80q53 0 112.5 25.5t112.5 66.5l10 49l-53 88q-16 16 -41 17q-10 0 -26 -8l-4 -2 q-4 -4 -7 -5q-2 0 -4 -2q-27 -14 -39 -14v768q0 49 -51 49h-151q-51 0 -52 -49v-455q0 -139 -55 -231t-170 -92q-76 0 -111.5 53t-35.5 141v426q0 90 -48.5 148.5t-150.5 58.5q-49 0 -106.5 -21.5t-106.5 -58.5h2q-22 -14 -22 -43z" />
<glyph unicode="&#xb6;" horiz-adv-x="1271" d="M39 856q0 -119 35 -225.5t96 -188.5t145 -135t181 -67v-486q0 -119 41 -176t151 -57q55 0 109.5 22.5t103.5 61.5h-2q23 14 23 43q0 20 -11 30l-37 70q-20 31 -47 31q-8 0 -22 -6q0 -2 -8 -4q-10 -8 -25.5 -15.5t-26.5 -7.5q-6 0 -6 27v1523h133v-1347q0 -119 42 -176.5 t153 -57.5q55 0 112.5 24.5t112.5 67.5l11 46l-48 90q-20 31 -47 30q-12 0 -37 -12q-12 -8 -25 -14t-22 -6q-4 0 -4 26v1336h68q51 0 51 49v118q0 51 -51 52h-545q-141 0 -252.5 -48.5t-190.5 -136.5t-120 -211t-41 -270z" />
<glyph unicode="&#xb7;" horiz-adv-x="497" d="M113 590q0 -61 47 -107.5t106 -46.5q61 0 107.5 46t46.5 108q0 63 -45 108t-109 45q-63 0 -108 -45t-45 -108z" />
<glyph unicode="&#x2219;" horiz-adv-x="497" d="M113 590q0 -61 47 -107.5t106 -46.5q61 0 107.5 46t46.5 108q0 63 -45 108t-109 45q-63 0 -108 -45t-45 -108z" />
<glyph unicode="&#xb8;" horiz-adv-x="985" d="M244 -225v-92q0 -14 11 -28.5t24 -19.5q63 -23 113 -33t110 -10q121 0 198.5 51.5t77.5 161.5q0 82 -54 130.5t-126 56.5l25 28l4 9q6 14 6 22q0 18 -14.5 32.5t-36.5 14.5h-84q-8 0 -18.5 -3t-12.5 -5l-141 -178q-10 -16 -11 -31q0 -20 15 -35l43 -39h-2q14 -14 37 -14 q18 0 28 10q37 16 72 17q20 0 33.5 -4t13.5 -15q0 -10 -20.5 -14t-59.5 -4t-80 10t-76 25q-10 6 -26 6q-20 0 -34.5 -14.5t-14.5 -34.5z" />
<glyph unicode="&#xb9;" d="M350 1294q0 -20 13.5 -34.5t33.5 -14.5h13l51 12v-397h-51q-20 0 -35 -14.5t-15 -34.5v-94q0 -20 14.5 -34.5t35.5 -14.5h323q49 0 49 49v94q0 49 -49 49h-49v590q0 51 -47 51h-14l-234 -59q-16 -4 -27.5 -18.5t-11.5 -30.5v-99z" />
<glyph unicode="&#xba;" horiz-adv-x="718" d="M33 1159q0 -150 93 -242t253 -92t253 92.5t93 241.5q0 150 -93 242t-253 92t-253 -92t-93 -242zM254 1159q0 68 29.5 110t95.5 42t95.5 -42t29.5 -110t-30 -108.5t-95 -40.5q-66 0 -95.5 40.5t-29.5 108.5z" />
<glyph unicode="&#xbb;" horiz-adv-x="985" d="M88 170q0 -23 25 -41l100 -66q25 -12 35 -12q12 0 23.5 7.5t17.5 21.5l274 412l-2 -7q10 10 10 35q0 14 -4 23l-278 418q-6 16 -17.5 22t-23.5 6q-10 0 -35 -12l-100 -68q-25 -18 -25 -39q0 -10 12 -34l205 -316l-205 -315q-12 -25 -12 -35zM451 170q0 -23 24 -41 l100 -66q25 -12 35 -12q23 0 37 23l279 418l-2 -7q10 10 10 35q0 14 -4 23l-283 424q-14 23 -37 22q-10 0 -35 -12l-100 -68q-25 -18 -24 -39q0 -10 12 -34l205 -316l-205 -315q-12 -25 -12 -35z" />
<glyph unicode="&#xbc;" horiz-adv-x="2277" d="M383 1329q0 -23 14.5 -37t34.5 -14h12l58 12v-407h-58q-51 0 -51 -52v-96q0 -51 51 -51h351q51 0 51 51v96q0 51 -51 52h-58v606q0 20 -13 34.5t-34 14.5h-12l-256 -59q-14 -4 -26.5 -19.5t-12.5 -32.5v-98zM561 59q0 -25 23 -39h-2l104 -73q16 -10 31 -10q23 0 35 12 l1134 1474l-2 -4q12 12 12 35q0 27 -22 41h2l-107 74l5 -2q-12 12 -33 12q-23 0 -35 -12l-1135 -1477l2 4q-12 -12 -12 -35zM1337 223q0 -51 52 -51h270q-12 -14 -12 -33v-94q0 -51 51 -51h307q51 0 51 51v94q0 23 -16 35q33 12 33 49v101q0 51 -52 51h-53v420q0 51 -51 51 h-178q-8 0 -23.5 -8.5t-19.5 -16.5l2 4l-361 -473v-129zM1608 375l127 164v-164h-127z" />
<glyph unicode="&#xbd;" horiz-adv-x="2277" d="M383 1329q0 -23 14.5 -37t34.5 -14h12l58 12v-407h-58q-51 0 -51 -52v-96q0 -51 51 -51h351q51 0 51 51v96q0 51 -51 52h-58v606q0 20 -13 34.5t-34 14.5h-12l-256 -59q-14 -4 -26.5 -19.5t-12.5 -32.5v-98zM492 59q0 -25 22 -39h-2l104 -73q16 -10 31 -10q23 0 35 12 l1135 1474l-2 -4q12 12 12 35q0 27 -23 41h2l-106 74l4 -2q-12 12 -33 12q-23 0 -35 -12l-1134 -1477l2 4q-12 -12 -12 -35zM1366 33q0 -20 14.5 -35.5t34.5 -15.5h8q10 2 23 2q10 0 20 2q18 2 52 6h6q80 12 114 12q43 0 109 -10h-4q6 -2 14 -2q6 0 12 -2q35 -6 80 -6 q111 0 173.5 54t62.5 179l-35 37l-98 10h-6q-39 0 -50 -39q-6 -20 -22 -20l-14 2q-14 4 -19 4h-4q-8 2 -18 4t-19 4q131 96 193.5 175t62.5 177q0 131 -85 204t-242 73q-94 0 -178.5 -40t-137.5 -91q-14 -14 -14 -37q0 -14 10 -31l59 -78v2q14 -23 41 -22q18 0 35 16 q37 31 79 49.5t85 18.5q61 0 84 -20.5t23 -47.5q0 -43 -38 -87t-137 -120l-254 -194l5 2q-8 -4 -16.5 -19.5t-8.5 -23.5v-92z" />
<glyph unicode="&#xbe;" horiz-adv-x="2281" d="M272 782q0 -12 9.5 -27.5t21.5 -19.5h-2q76 -35 143.5 -51t151.5 -16q145 0 252.5 71.5t107.5 202.5q0 57 -24.5 106.5t-67.5 81.5q68 63 68 158q0 127 -91 188.5t-235 61.5q-88 0 -158.5 -27.5t-150.5 -74.5q-23 -14 -23 -45q0 -12 9 -29l55 -80v2q14 -23 41 -22 q10 0 18 2q6 0 17 10l4 4l-8 -4q53 29 93 43t87 14q94 0 94 -53q0 -31 -30.5 -43t-80.5 -12h-51q-23 0 -37 -14.5t-14 -34.5v-107q0 -51 51 -51l53 2h13q51 0 82.5 -17.5t31.5 -52.5q0 -33 -28.5 -53.5t-77.5 -20.5q-72 0 -125 14.5t-125 53.5q-12 6 -24 6q-20 0 -35 -14 t-15 -37v-115zM561 59q0 -25 23 -39h-2l106 -73q16 -10 31 -10q23 0 35 12l1136 1474l-2 -4q12 12 13 35q0 27 -23 41h2l-106 74l-9 4q-14 6 -22 6q-23 0 -35 -12l-1137 -1477l2 4q-12 -12 -12 -35zM1339 223q0 -51 52 -51h272q-12 -14 -12 -33v-94q0 -23 14 -37t35 -14h309 q51 0 51 51v94q0 23 -16 35q33 12 33 49v101q0 51 -52 51h-53v420q0 51 -51 51h-180q-8 0 -23.5 -8.5t-19.5 -16.5l2 4l-361 -473v-129zM1610 375l129 164v-164h-129z" />
<glyph unicode="&#xbf;" horiz-adv-x="952" d="M113 -92q0 -188 119.5 -287.5t320.5 -99.5q143 0 254 62.5t182 144.5v53l-84 92q-16 16 -37 16q-23 0 -37 -14q-49 -49 -113.5 -87t-146.5 -38q-98 0 -148 44t-50 126q0 61 34.5 112.5t104.5 123.5l25 26q84 86 113.5 153.5t29.5 174.5v96q0 23 -14.5 37t-34.5 14h-154 q-20 0 -34.5 -14t-14.5 -37v-84q0 -61 -20.5 -104t-63.5 -84q-117 -106 -174 -198.5t-57 -227.5zM387 887q0 -72 48 -121t120 -49q68 0 117 50t49 120q0 68 -50 119t-116 51t-117 -50t-51 -120z" />
<glyph unicode="&#xc0;" horiz-adv-x="1351" d="M-31 51q0 -23 14.5 -37t34.5 -14h224q14 0 28.5 11.5t18.5 23.5l160 461h430l151 -461l-2 2q4 -14 19.5 -25.5t31.5 -11.5h252q51 0 51 51v117q0 51 -51 51h-84l-428 1266l2 -2q-10 37 -49 37h-168q-14 0 -27.5 -11.5t-19.5 -23.5l-461 -1266h-78q-20 0 -34.5 -14.5 t-14.5 -36.5v-117zM250 1667q0 -45 41 -51l622 -98h9q18 0 34.5 15t16.5 36v117q0 16 -12.5 30.5t-28.5 18.5l-621 129h-10q-20 0 -35.5 -14.5t-15.5 -37.5v-145zM530 729l144 399l127 -399h-271z" />
<glyph unicode="&#xc1;" horiz-adv-x="1351" d="M-31 51q0 -23 14.5 -37t34.5 -14h224q14 0 28.5 11.5t18.5 23.5l160 461h430l151 -461l-2 2q4 -14 19.5 -25.5t31.5 -11.5h252q51 0 51 51v117q0 51 -51 51h-84l-428 1266l2 -2q-10 37 -49 37h-168q-14 0 -27.5 -11.5t-19.5 -23.5l-461 -1266h-78q-20 0 -34.5 -14.5 t-14.5 -36.5v-117zM356 1569q0 -20 15.5 -35.5t36.5 -15.5h8l618 98q43 6 43 51v145q0 23 -14 37.5t-35 14.5h-10l-623 -129q-16 -4 -27.5 -18.5t-11.5 -30.5v-117zM530 729l144 399l127 -399h-271z" />
<glyph unicode="&#xc2;" horiz-adv-x="1351" d="M-31 51q0 -23 14.5 -37t34.5 -14h224q14 0 28.5 11.5t18.5 23.5l160 461h430l151 -461l-2 2q4 -14 19.5 -25.5t31.5 -11.5h252q51 0 51 51v119q0 20 -14 34.5t-37 14.5h-84l-428 1266l2 -2q-10 37 -49 37h-168q-14 0 -27.5 -11.5t-19.5 -23.5l-461 -1266h-78 q-20 0 -34.5 -14.5t-14.5 -34.5v-119zM244 1573q0 -49 49 -49h10l381 133l383 -133h10q49 0 49 49v113q0 14 -8 28.5t-22 18.5h2l-400 172l-8 2h-8h-6l-8 -2l-398 -174q-8 -4 -17 -19.5t-9 -25.5v-113zM530 729l144 399l127 -399h-271z" />
<glyph unicode="&#xc3;" horiz-adv-x="1351" d="M-31 51q0 -23 14.5 -37t34.5 -14h224q14 0 28.5 11.5t18.5 23.5l160 461h430l151 -461l-2 2q4 -14 19.5 -25.5t31.5 -11.5h252q51 0 51 51v117q0 51 -51 51h-84l-428 1266l2 -2q-10 37 -49 37h-168q-14 0 -27.5 -11.5t-19.5 -23.5l-461 -1266h-78q-20 0 -34.5 -14.5 t-14.5 -36.5v-117zM244 1565q0 -20 14 -34.5t35 -14.5h104q16 0 31.5 13t17.5 32q6 23 18.5 38t37.5 15q47 0 112 -21h43l41 -2l-55 56l-35 -52q18 -8 29 -8q4 -2 6 -2h2l2 -2q8 -4 15 -4q4 -2 10 -2h2q53 -14 91 -20.5t93 -6.5q59 0 104.5 24.5t75 65.5t46 90.5t22.5 102.5 l-41 43h-115q-16 0 -31.5 -13.5t-19.5 -27.5q-6 -25 -16.5 -41t-30.5 -16q-33 0 -70 9t-104 30h-2q-41 12 -80 18t-90 6q-117 0 -184.5 -81t-77.5 -189v-6zM530 729l144 399l127 -399h-271z" />
<glyph unicode="&#xc4;" horiz-adv-x="1351" d="M-31 51q0 -23 14.5 -37t34.5 -14h224q14 0 28.5 11.5t18.5 23.5l160 459h430l151 -459l-2 2q4 -14 19.5 -25.5t31.5 -11.5h252q51 0 51 51v117q0 51 -51 51h-84l-428 1266l2 -2q-10 37 -49 37h-168q-14 0 -27.5 -11.5t-19.5 -23.5l-461 -1266h-78q-20 0 -34.5 -14.5 t-14.5 -36.5v-117zM281 1675q0 -66 46 -111.5t111 -45.5q66 0 112 46t46 111q0 66 -46 113t-112 47t-111.5 -47t-45.5 -113zM530 727l144 399l127 -399h-271zM768 1675q0 -66 46 -111.5t112 -45.5t111.5 46t45.5 111q0 66 -46 113t-111 47q-66 0 -112 -47t-46 -113z" />
<glyph unicode="&#xc5;" horiz-adv-x="1355" d="M-29 51q0 -23 14.5 -37t34.5 -14h224q14 0 28.5 11.5t18.5 23.5l160 459h430l151 -459l-2 2q4 -14 19.5 -25.5t31.5 -11.5h252q51 0 51 51v117q0 51 -51 51h-84l-395 1167q45 37 70.5 90.5t25.5 114.5q0 106 -74.5 184t-187.5 78q-111 0 -185.5 -77.5t-74.5 -184.5 q0 -61 25.5 -113.5t68.5 -88.5l-424 -1170h-78q-20 0 -34.5 -14.5t-14.5 -36.5v-117zM532 729l144 399l127 -399h-271zM616 1591q0 31 21.5 51.5t50.5 20.5t51.5 -20.5t22.5 -51.5q0 -29 -19.5 -49t-46.5 -22h-14q-29 2 -47.5 21t-18.5 50z" />
<glyph unicode="&#xc6;" horiz-adv-x="1898" d="M-25 51q0 -51 52 -51h202q12 0 24.5 9t18.5 18v-2l236 389h493v-195h-71q-51 0 -51 -51v-117q0 -51 51 -51h944q51 0 51 51v125q0 51 -51 51h-612v449h487q23 0 37 14.5t14 34.5v129q0 20 -14 34.5t-37 14.5h-487v381h544q51 0 52 51v125q0 51 -52 51h-1089 q-20 0 -34.5 -14t-14.5 -37v-110q0 -23 14 -37.5t35 -14.5h55l-661 -1079h-84q-51 0 -52 -51v-117zM649 645l352 586v-586h-352z" />
<glyph unicode="&#xc7;" horiz-adv-x="1245" d="M74 760q0 -297 134 -499t367 -269l-73 -82v2q-12 -12 -13 -33q0 -18 11 -35l45 -51q12 -12 35 -12h10q2 0 12 2q10 4 12 4q10 2 23 6q51 14 78 14t45 -6t18 -18q0 -14 -28.5 -19.5t-71.5 -5.5q-45 0 -97.5 12.5t-107.5 30.5h-10q-51 0 -51 -51v-104q0 -16 11 -32.5 t26 -19.5v3q74 -23 135 -33t131 -10q59 0 114.5 13t98.5 40q98 61 98 178q0 66 -36 113t-93 71q92 8 169 33t138 55q27 14 27 45v152q0 23 -15.5 37t-35.5 14t-31 -10l8 4q-78 -43 -158.5 -67.5t-187.5 -24.5q-98 0 -183 41t-145.5 114.5t-94.5 176t-34 221.5t31 220t89 177 t142 118t187 42q88 0 157.5 -17.5t149.5 -48.5q6 -6 27 -6q39 0 49 35l-2 -2l45 117q8 10 8 28q0 37 -35 47l4 -2q-94 41 -192.5 66t-220.5 25q-158 0 -290 -57.5t-228.5 -164t-148.5 -254t-52 -323.5z" />
<glyph unicode="&#xc8;" d="M63 51q0 -51 52 -51h981q20 0 34.5 14.5t14.5 36.5v125q0 23 -14.5 37t-34.5 14h-652v451h529q51 0 51 51v129q0 51 -51 51h-529v383h584q49 0 49 49v127q0 51 -49 52h-80q14 4 24.5 18t10.5 31v117q0 14 -14.5 30.5t-30.5 20.5l-608 127h-11q-20 0 -35.5 -14.5 t-15.5 -37.5v-145q0 -45 41 -51l602 -96h-796q-51 0 -52 -52v-118q0 -49 52 -50h67v-1081h-67q-51 0 -52 -51v-117z" />
<glyph unicode="&#xc9;" d="M63 51q0 -51 52 -51h981q20 0 34.5 14.5t14.5 36.5v125q0 23 -14.5 37t-34.5 14h-652v451h529q51 0 51 51v129q0 51 -51 51h-529v383h584q49 0 49 49v127q0 51 -49 52h-682l615 98q29 8 28 49v145q0 23 -14 37.5t-35 14.5h-10l-617 -129q-16 -4 -27.5 -18.5t-11.5 -30.5 v-117q0 -39 37 -49h-196q-51 0 -52 -52v-118q0 -49 52 -50h67v-1081h-67q-51 0 -52 -51v-117z" />
<glyph unicode="&#xca;" d="M63 51q0 -51 52 -51h981q20 0 34.5 14.5t14.5 36.5v125q0 23 -14.5 37t-34.5 14h-652v453h529q23 0 37 14.5t14 34.5v129q0 51 -51 51h-529v383h584q49 0 49 51v125q0 51 -49 52h-913q-51 0 -52 -52v-116q0 -51 52 -52h67v-1081h-67q-23 0 -37.5 -14.5t-14.5 -34.5v-119z M170 1573q0 -49 51 -49h10l375 133l381 -133h8q20 0 36 13t16 36v113q0 12 -10.5 27.5t-22.5 19.5h2l-393 172l-9 2h-8q-4 0 -10 -2h-6l-389 -172h2q-12 -4 -22.5 -19.5t-10.5 -27.5v-113z" />
<glyph unicode="&#xcb;" d="M63 51q0 -51 52 -51h981q20 0 34.5 14.5t14.5 36.5v125q0 23 -14.5 37t-34.5 14h-652v451h529q51 0 51 51v129q0 49 -51 49h-529v383h584q49 0 49 51v127q0 51 -49 52h-145q57 10 95 53t38 102q0 66 -46 113t-112 47q-63 0 -109.5 -47t-46.5 -113q0 -59 37 -102t92 -53 h-430q57 10 94 53t37 102q0 66 -46 113t-109 47q-66 0 -112 -47t-46 -113q0 -59 37 -102t94 -53h-235q-51 0 -52 -52v-118q0 -51 52 -52h67v-1079h-67q-51 0 -52 -51v-117z" />
<glyph unicode="&#xcc;" horiz-adv-x="577" d="M-100 1667q0 -45 41 -51l602 -98h8q20 0 34.5 15t14.5 36v117q0 14 -14.5 30.5t-30.5 20.5l-596 127h-10q-20 0 -34.5 -14.5t-14.5 -37.5v-145zM61 51q0 -51 52 -51h391q51 0 51 51v117q0 51 -51 51h-68v1081h68q51 0 51 50v118q0 51 -51 52h-391q-51 0 -52 -52v-118 q0 -49 52 -50h65v-1081h-65q-51 0 -52 -51v-117z" />
<glyph unicode="&#xcd;" horiz-adv-x="577" d="M-33 1569q0 -20 15.5 -35.5t35.5 -15.5h7l614 100q29 8 29 49v145q0 23 -14.5 37.5t-35.5 14.5h-10l-602 -129q-16 -4 -27.5 -18.5t-11.5 -30.5v-117zM61 51q0 -51 52 -51h391q51 0 51 51v117q0 51 -51 51h-68v1081h68q51 0 51 50v118q0 51 -51 52h-391q-51 0 -52 -52 v-118q0 -49 52 -50h65v-1081h-65q-51 0 -52 -51v-117z" />
<glyph unicode="&#xce;" horiz-adv-x="585" d="M-119 1573q0 -49 51 -49h11l370 133l377 -133h8q20 0 36 13t16 36v113q0 12 -10.5 27.5t-22.5 19.5h2l-389 172l-8 2h-9q-4 0 -10 -2h-6l-385 -172h2q-12 -4 -22.5 -19.5t-10.5 -27.5v-113zM63 51q0 -51 50 -51h397q51 0 51 51v119q0 20 -14.5 34.5t-36.5 14.5h-68v1081 h68q51 0 51 52v116q0 51 -51 52h-397q-49 0 -50 -52v-116q0 -51 50 -52h69v-1081h-69q-49 0 -50 -49v-119z" />
<glyph unicode="&#xcf;" horiz-adv-x="581" d="M-82 1675q0 -66 45 -111.5t111 -45.5t110.5 46t44.5 111q0 66 -46 113t-109 47t-109.5 -47t-46.5 -113zM61 51q0 -51 52 -51h395q49 0 49 51v117q0 51 -49 51h-68v1079h68q49 0 49 52v118q0 51 -49 52h-395q-51 0 -52 -52v-118q0 -51 52 -52h67v-1079h-67q-51 0 -52 -51 v-117zM393 1675q0 -66 45 -111.5t111 -45.5q63 0 108 46t45 111q0 66 -45 113t-108 47t-109.5 -47t-46.5 -113z" />
<glyph unicode="&#xd0;" horiz-adv-x="1380" d="M47 698q0 -23 14.5 -37t34.5 -14h88v-428h-69q-51 0 -52 -51v-117q0 -51 52 -51h440q195 0 344.5 56.5t248.5 158.5t148.5 239.5t49.5 301.5q0 162 -49.5 300t-148.5 240.5t-248.5 158.5t-344.5 56h-440q-51 0 -52 -51v-117q0 -51 52 -51h69v-422h-88q-20 0 -34.5 -14 t-14.5 -37v-121zM446 227v420h228q51 0 51 51v121q0 51 -51 51h-228v414h132q106 0 196 -39t155.5 -109.5t100.5 -168t35 -211.5q0 -115 -35 -212.5t-97.5 -169t-147.5 -109.5t-183 -38h-156z" />
<glyph unicode="&#xd1;" horiz-adv-x="1564" d="M45 51q0 -23 14.5 -37t34.5 -14h273q20 0 34.5 14.5t14.5 36.5v1034l700 -1062v2q4 -8 18.5 -16.5t22.5 -8.5h203q20 0 34.5 14.5t14.5 36.5v1249h70q23 0 37 14.5t14 35.5v118q0 51 -51 52h-271q-51 0 -51 -52v-1034l-698 1063v-2q-4 8 -29 21h100q16 0 32 12t20 26 q6 27 18 43.5t37 16.5q43 0 106 -19q18 -8 29 -8q4 -2 6 -2q4 -2 8 -2l7 -2q8 -4 12 -4l6 -2q51 -12 89 -18.5t93 -6.5q59 0 104.5 24.5t75 65.5t46 90.5t22.5 102.5l-41 43h-117q-12 0 -29.5 -13.5t-19.5 -27.5q-6 -25 -16 -41t-31 -16q-35 0 -65.5 7t-77.5 21h-4v4 q-49 16 -92 23.5t-107 7.5q-117 0 -184.5 -80t-79.5 -188v-8q0 -31 31 -45h-314q-20 0 -34.5 -14.5t-14.5 -37.5v-118q0 -20 14.5 -35t34.5 -15h70v-1081h-70q-20 0 -34.5 -14.5t-14.5 -36.5v-117z" />
<glyph unicode="&#xd2;" horiz-adv-x="1544" d="M74 760q0 -172 46 -318.5t137 -253t226 -166t308 -59.5q174 0 308 58.5t225 166t137 254t46 318.5q0 285 -121.5 486.5t-351.5 273.5l23 -2q20 0 38.5 14t18.5 37v117q0 16 -12 31.5t-29 19.5l-620 127h-11q-20 0 -34.5 -14.5t-14.5 -34.5v-148q0 -45 41 -51l381 -62 q-2 0 -12 2h-12q-172 0 -307.5 -58t-226.5 -165.5t-137 -254t-46 -318.5zM356 760q0 117 26 218t79 179t136 122t194 44t194.5 -44t137 -122t79 -179t25.5 -218q0 -115 -25.5 -216.5t-79 -179t-137.5 -121.5t-194 -44q-111 0 -194 44t-136 120.5t-79 179t-26 217.5z" />
<glyph unicode="&#xd3;" horiz-adv-x="1544" d="M74 760q0 -172 46 -318.5t137 -253t226 -166t308 -59.5q174 0 308 58.5t225 166t137 254t46 318.5t-46 318.5t-137 254t-225 165.5t-308 58h-11q-8 -2 -10 -2l379 62q43 6 43 51v148q0 20 -16.5 34.5t-34.5 14.5h-11l-614 -125q-16 -4 -30.5 -21.5t-14.5 -31.5v-117 q0 -23 18.5 -37t38.5 -14l15 2q-227 -74 -348 -275.5t-121 -484.5zM356 760q0 117 26 218t79 179t136 122t194 44t194.5 -44t137 -122t79 -179t25.5 -218q0 -115 -25.5 -216.5t-79 -179t-137.5 -121.5t-194 -44q-111 0 -194 44t-136 120.5t-79 179t-26 217.5z" />
<glyph unicode="&#xd4;" horiz-adv-x="1544" d="M74 760q0 -172 46 -318.5t137 -253t226 -166t308 -59.5q174 0 308 58.5t225 166t137 254t46 318.5q0 174 -46 319.5t-137 253t-225 165.5t-308 58q-172 0 -307.5 -58t-226.5 -165.5t-137 -253t-46 -319.5zM352 1575q0 -23 14.5 -37t34.5 -14l7 2h6l379 131l385 -131h6 l4 -2q20 0 34.5 14t14.5 37v111q0 10 -10 25t-19 20l-399 174l-8 2h-8q-6 0 -9.5 -1t-11.5 -5l2 2l-391 -170h2q-12 -4 -22.5 -19.5t-10.5 -27.5v-111zM356 760q0 117 26 218t79 179t136 122t194 44t194.5 -44t137 -122t79 -179t25.5 -218q0 -115 -25.5 -216.5t-79 -179 t-137.5 -121.5t-194 -44q-111 0 -194 44t-136 120.5t-79 179t-26 217.5z" />
<glyph unicode="&#xd5;" horiz-adv-x="1544" d="M74 760q0 -172 46 -318.5t137 -253t226 -166t308 -59.5q174 0 308 58.5t225 166t137 254t46 318.5t-46 318.5t-137 254t-225 165.5t-308 58q-119 0 -234 -32q27 20 33 39q6 25 17 39t36 14q43 0 109 -21h2q14 -6 32 -12l-4 4l4 -2q6 -6 15 -6q4 -2 10 -2q49 -12 90 -19.5 t96 -7.5q59 0 104.5 24.5t75 65.5t46 91.5t22.5 103.5l-39 41h-116q-14 0 -31 -13.5t-21 -27.5q-4 -25 -14 -41t-31 -16q-37 0 -66.5 7t-76.5 21h-4v4q-49 16 -92 24.5t-107 8.5q-119 0 -186.5 -82t-77.5 -188v-6q0 -20 15.5 -34.5t35.5 -14.5h101q-223 -76 -342 -276.5 t-119 -481.5zM356 760q0 117 26 218t79 179t136 122t194 44t194.5 -44t137 -122t79 -179t25.5 -218q0 -115 -25.5 -216.5t-79 -179t-137.5 -121.5t-194 -44q-111 0 -194 44t-136 120.5t-79 179t-26 217.5z" />
<glyph unicode="&#xd6;" horiz-adv-x="1544" d="M74 760q0 -172 46 -318.5t137 -253t226 -166t308 -59.5q174 0 308 58.5t225 166t137 254t46 318.5q0 283 -120.5 484.5t-348.5 273.5h4q66 0 112 47t46 112q0 63 -46 110.5t-112 47.5t-111.5 -47t-45.5 -111q0 -45 21.5 -81.5t58.5 -59.5q-80 18 -174 18q-70 0 -152 -14 q35 23 54.5 58.5t19.5 78.5q0 63 -46 110.5t-112 47.5t-112 -47t-46 -111q0 -63 42 -109t104 -50q-227 -72 -348 -273.5t-121 -484.5zM356 760q0 115 26 216t79 179t136 122t194 44t194.5 -44t137 -122t79 -179.5t25.5 -215.5q0 -117 -25.5 -218.5t-79 -179t-137.5 -121.5 t-194 -44q-111 0 -194 44t-136 121.5t-79 179t-26 218.5z" />
<glyph unicode="&#xd7;" d="M84 989q0 -27 14 -37l308 -307l-308 -307q-12 -12 -12 -37t12 -37l103 -98h-2q14 -14 37 -14t36 14l308 307l305 -307q14 -14 37 -14t36 14h-2l101 98q16 16 16 37q0 23 -14 37l-307 307l309 309l-2 -2q16 12 16 37q0 23 -14 37l-100 100q-14 14 -37 15q-23 0 -37 -15 l-307 -309l-310 309q-14 14 -37 15q-23 0 -36 -15l-101 -100q-12 -12 -12 -37z" />
<glyph unicode="&#xd8;" horiz-adv-x="1544" d="M74 758q0 -311 143 -516l-117 -138q-10 -16 -10 -30q0 -20 14 -35l86 -76h-2q14 -14 35 -14q23 0 29 6l115 135q84 -61 192.5 -94t231.5 -33q174 0 308 58.5t225 166t137 253t46 317.5q0 305 -141 512l117 139v-2q8 8 10 14t2 19q0 20 -18 43l-88 73q-12 10 -31 11 q-25 0 -31 -6l-113 -136q-172 125 -423 125q-172 0 -307.5 -58t-226.5 -164.5t-137 -252t-46 -317.5zM356 758q0 115 26 216t79 179t136 121t194 43q158 0 260 -86l-645 -768q-50 121 -50 295zM528 281l648 766q51 -137 51 -289q0 -115 -25.5 -216.5t-79 -179t-137.5 -121.5 t-194 -44q-159 0 -263 84z" />
<glyph unicode="&#xd9;" horiz-adv-x="1468" d="M39 1352q0 -23 14.5 -37.5t34.5 -14.5h70v-780q0 -270 142 -414.5t445 -144.5q295 0 434.5 144.5t139.5 414.5v780h67q51 0 52 52v116q0 51 -52 52h-274q-51 0 -51 -52v-917q0 -186 -76 -269t-237 -83q-168 0 -244 81.5t-76 270.5v917q0 51 -51 52h-289 q-20 0 -34.5 -14.5t-14.5 -37.5v-116zM358 1667q0 -45 41 -51l621 -96h8q18 0 34.5 14t16.5 35v117q0 16 -12 31.5t-29 19.5l-618 127h-10q-20 0 -36 -14.5t-16 -34.5v-148z" />
<glyph unicode="&#xda;" horiz-adv-x="1468" d="M55 1352q0 -23 14.5 -37.5t34.5 -14.5h70v-780q0 -270 142.5 -414.5t445.5 -144.5q295 0 434 144.5t139 414.5v780h68q51 0 51 52v116q0 51 -51 52h-275q-51 0 -51 -52v-917q0 -186 -75.5 -269t-237.5 -83q-168 0 -244 81.5t-76 270.5v917q0 51 -51 52h-289 q-20 0 -34.5 -14.5t-14.5 -37.5v-116zM500 1569q0 -20 15 -34.5t36 -14.5h8l619 96q43 6 43 51v148q0 20 -14.5 34.5t-35.5 14.5h-10l-622 -127q-14 -4 -26.5 -19.5t-12.5 -31.5v-117z" />
<glyph unicode="&#xdb;" horiz-adv-x="1468" d="M43 1352q0 -23 14.5 -37.5t34.5 -14.5h70v-780q0 -270 142 -414.5t446 -144.5q295 0 434 144.5t139 414.5v780h68q51 0 51 52v118q0 51 -51 52h-275q-51 0 -51 -52v-919q0 -186 -76 -269t-237 -83q-168 0 -244 81.5t-76 270.5v919q0 51 -51 52h-289q-20 0 -34.5 -14.5 t-14.5 -37.5v-118zM313 1575q0 -23 14.5 -37t34.5 -14l7 2h4l381 131l383 -131h6l4 -2q20 0 34.5 14t14.5 37v111q0 10 -10 25t-19 20l-399 174l-8 2h-8h-7l-8 -2l-393 -172h2q-12 -4 -22.5 -19.5t-10.5 -27.5v-111z" />
<glyph unicode="&#xdc;" horiz-adv-x="1468" d="M55 1350q0 -20 14.5 -35t34.5 -15h70v-780q0 -270 142.5 -414.5t445.5 -144.5q295 0 434 144.5t139 414.5v780h68q23 0 37 14.5t14 35.5v118q0 51 -51 52h-275q-51 0 -51 -52v-917q0 -186 -75.5 -270t-237.5 -84q-168 0 -244 82.5t-76 271.5v917q0 51 -51 52h-289 q-20 0 -34.5 -14.5t-14.5 -37.5v-118zM360 1677q0 -66 46.5 -112.5t111.5 -46.5q66 0 112 47t46 112q0 63 -46 110.5t-112 47.5t-112 -47.5t-46 -110.5zM848 1677q0 -66 46 -112.5t112 -46.5t111.5 47t45.5 112q0 63 -46 110.5t-111 47.5q-66 0 -112 -47.5t-46 -110.5z" />
<glyph unicode="&#xdd;" horiz-adv-x="1202" d="M-27 1350q0 -49 50 -50h69l395 -634v-447h-67q-51 0 -51 -51v-117q0 -51 51 -51h399q51 0 51 51v117q0 51 -51 51h-67v455l354 626h76q51 0 51 50v118q0 51 -51 52h-191q-10 0 -25.5 -9.5t-19.5 -17.5l-323 -567l-351 569v-2q-6 8 -18 17.5t-25 9.5h-206q-20 0 -35 -14.5 t-15 -37.5v-118zM336 1569q0 -20 14.5 -35.5t34.5 -15.5h8l619 98q43 6 43 51v145q0 23 -15.5 37.5t-35.5 14.5h-11l-620 -129q-37 -10 -37 -49v-117z" />
<glyph unicode="&#xde;" horiz-adv-x="1161" d="M63 51q0 -51 52 -51h411q51 0 52 51v117q0 51 -52 51h-84v98h213q240 0 375 117t135 334q0 215 -136 337t-374 122h-213v65h72q51 0 51 51v117q0 51 -51 51h-399q-51 0 -52 -51v-117q0 -51 52 -51h67v-1073h-67q-51 0 -52 -51v-117zM442 545v454h222q111 0 172 -60 t61 -171t-60.5 -167t-172.5 -56h-222z" />
<glyph unicode="&#xdf;" horiz-adv-x="1167" d="M121 51q0 -23 14.5 -37t34.5 -14h154q51 0 51 51v1084q0 57 10 107t34.5 90t65.5 63.5t103 23.5q80 0 127 -49t47 -137q0 -90 -52.5 -143.5t-136.5 -53.5h-43q-51 0 -51 -51v-131q0 -51 51 -51h45q135 0 215 -76t80 -221q0 -150 -68.5 -226.5t-185.5 -76.5q-35 0 -64.5 4 t-76.5 18h-8q-20 0 -34.5 -14t-14.5 -37v-123q0 -14 10 -29.5t23 -19.5q53 -16 93 -21.5t89 -5.5q223 0 364.5 134.5t141.5 382.5q0 340 -256 446q63 51 100 131t37 180q0 176 -119 280.5t-305 104.5q-127 0 -218 -37.5t-147.5 -106.5t-83 -161t-26.5 -201v-1077z" />
<glyph unicode="&#xe0;" horiz-adv-x="1103" d="M29 350q0 -174 103.5 -274.5t289.5 -100.5q86 0 156.5 27t117.5 68q45 -70 160 -70q55 0 113.5 24.5t109.5 65.5l11 49l-54 88q-16 16 -39 17q-10 0 -26 -8l-4 -3q-4 -4 -6 -4t-5 -2q-27 -14 -38 -14v432q0 281 -216 365q18 16 19 41q0 8 -6 22l-4 8l-267 355l2 -4 q-4 8 -19 16t-24 8h-153q-23 0 -37 -14.5t-14 -32.5q0 -20 14 -35l-2 4l268 -334q-82 -2 -158.5 -21t-140.5 -52q-29 -10 -28 -47q0 -20 6 -27l39 -94v2q10 -31 45 -31q23 0 32 10l-8 -4q94 47 205 47q193 0 193 -159v-4q-47 27 -106.5 43t-123.5 16q-186 0 -295.5 -104.5 t-109.5 -268.5zM285 350q0 72 44 117t126 45q100 0 155.5 -44t55.5 -114q0 -74 -58.5 -120t-146.5 -46q-86 0 -131 44t-45 118z" />
<glyph unicode="&#xe1;" horiz-adv-x="1103" d="M29 350q0 -174 103.5 -274.5t289.5 -100.5q86 0 156.5 27t117.5 68q45 -70 160 -70q55 0 113.5 24.5t109.5 65.5l11 49l-54 88q-16 16 -39 17q-10 0 -26 -8l-4 -3q-4 -4 -6 -4t-5 -2q-27 -14 -38 -14v432q0 176 -88.5 278.5t-266.5 118.5l285 351l-2 -4q12 12 12 34 q0 18 -13.5 32.5t-35.5 14.5h-156q-8 0 -21.5 -7t-19.5 -15l2 2l-266 -354l2 4q-12 -12 -12 -35t12 -35q-94 -18 -170 -59q-29 -10 -28 -47q0 -20 6 -27l39 -94v2q10 -31 45 -31q23 0 32 10l-8 -4q94 47 205 47q193 0 193 -159v-4q-47 27 -106.5 43t-123.5 16 q-186 0 -295.5 -104.5t-109.5 -268.5zM285 350q0 72 44 117t126 45q100 0 155.5 -44t55.5 -114q0 -74 -58.5 -120t-146.5 -46q-86 0 -131 44t-45 118z" />
<glyph unicode="&#xe2;" horiz-adv-x="1103" d="M29 350q0 -174 103.5 -274.5t289.5 -100.5q86 0 156.5 27t117.5 68q45 -70 160 -70q55 0 113.5 24.5t109.5 65.5l11 49l-54 88q-16 16 -39 17q-10 0 -26 -8l-4 -3q-4 -4 -6 -4t-5 -2q-27 -14 -38 -14v432q0 260 -187 352h105q23 0 37 14.5t14 35.5q0 18 -10 28l-215 373 v-2q-4 8 -19.5 17.5t-26.5 9.5h-167q-8 0 -23.5 -9.5t-19.5 -17.5l-218 -377l5 8q-10 -10 -11 -30q0 -20 14.5 -35t34.5 -15h9q-41 -16 -60 -26q-29 -10 -28 -47q0 -20 6 -27l39 -94v2q10 -31 45 -31q23 0 32 10l-8 -4q94 47 205 47q193 0 193 -159v-4q-47 27 -106.5 43 t-123.5 16q-186 0 -295.5 -104.5t-109.5 -268.5zM285 350q0 72 44 117t126 45q100 0 155.5 -44t55.5 -114q0 -74 -58.5 -120t-146.5 -46q-86 0 -131 44t-45 118zM406 1038l118 205l138 -219q-82 20 -166 20q-47 0 -90 -6z" />
<glyph unicode="&#xe3;" horiz-adv-x="1103" d="M29 350q0 -174 103.5 -274.5t289.5 -100.5q86 0 156.5 27t117.5 68q45 -70 160 -70q55 0 113.5 24.5t109.5 65.5l11 49l-54 88q-16 16 -39 17q-10 0 -26 -8l-4 -3q-4 -4 -6 -4t-5 -2q-27 -14 -38 -14v432q0 193 -104.5 296t-317.5 103q-74 0 -140 -12l6 12 q6 25 17.5 41.5t28.5 16.5q29 0 86 -17l-7 2l13 -6h8l31 -10h2q29 -6 52 -9t64 -3q104 0 168 81t64 185l-35 35h-119q-20 0 -34.5 -13.5t-14.5 -33.5q-10 -55 -43 -56q-18 0 -43 7q-4 2 -6 2h2l-16 6l-17 4l-2 -2l-2 2h-4q-49 14 -80 20.5t-72 6.5q-111 0 -177 -78t-70 -176 q0 -20 14 -35t37 -15h37q-23 -8 -64 -28q-29 -10 -28 -47q0 -20 6 -27l39 -94v2q10 -31 45 -31q23 0 32 10l-8 -4q94 47 205 47q193 0 193 -159v-4q-47 27 -106.5 43t-123.5 16q-186 0 -295.5 -104.5t-109.5 -268.5zM285 350q0 72 44 117t126 45q100 0 155.5 -44t55.5 -114 q0 -74 -58.5 -120t-146.5 -46q-86 0 -131 44t-45 118z" />
<glyph unicode="&#xe4;" horiz-adv-x="1103" d="M29 350q0 -174 103.5 -274.5t289.5 -100.5q86 0 156.5 27t117.5 68q45 -70 160 -70q55 0 113.5 24.5t109.5 65.5l11 49l-54 88q-16 16 -39 17q-10 0 -26 -8l-4 -3q-4 -4 -6 -4t-5 -2q-27 -14 -38 -14v432q0 244 -164 340q47 14 76.5 51t29.5 84q0 57 -45 99.5t-108 42.5 q-66 0 -110 -42t-44 -100q0 -45 25 -80q-49 4 -82 4q-27 0 -41 -2q25 35 24 78q0 57 -45 99.5t-108 42.5t-108.5 -42t-45.5 -100q0 -37 19.5 -69.5t54.5 -51.5q-4 -2 -29 -12q-20 -8 -37 -16q-29 -10 -28 -47q0 -20 6 -27l39 -94v2q10 -31 45 -31q23 0 32 10l-8 -4 q94 47 205 47q193 0 193 -159v-4q-47 27 -106.5 43t-123.5 16q-186 0 -295.5 -104.5t-109.5 -268.5zM285 350q0 72 44 117t126 45q100 0 155.5 -44t55.5 -114q0 -74 -58.5 -120t-146.5 -46q-86 0 -131 44t-45 118z" />
<glyph unicode="&#xe5;" horiz-adv-x="1103" d="M29 350q0 -174 103.5 -274.5t289.5 -100.5q86 0 156.5 27t117.5 68q45 -70 160 -70q55 0 113.5 24.5t109.5 65.5l11 49l-54 88q-16 16 -39 17q-10 0 -26 -8l-4 -3q-4 -4 -6 -4t-5 -2q-27 -14 -38 -14v432q0 158 -71 256t-214 129q59 31 93 89.5t34 127.5q0 100 -71 174 t-177 74t-177 -73.5t-71 -174.5q0 -68 31 -123t86 -88q-113 -18 -201 -65q-29 -10 -28 -47q0 -20 6 -27l39 -94v2q10 -31 45 -31q23 0 32 10l-8 -4q94 47 205 47q193 0 193 -159v-4q-47 27 -106.5 43t-123.5 16q-186 0 -295.5 -104.5t-109.5 -268.5zM285 350q0 72 44 117 t126 45q100 0 155.5 -44t55.5 -114q0 -74 -58.5 -120t-146.5 -46q-86 0 -131 44t-45 118zM444 1247q0 27 20.5 46.5t47.5 19.5t46.5 -19.5t19.5 -46.5q0 -29 -19.5 -47t-46.5 -18t-47.5 18t-20.5 47z" />
<glyph unicode="&#xe6;" horiz-adv-x="1615" d="M25 350q0 -176 105.5 -275.5t309.5 -99.5q113 0 201 42t145 108q55 -63 147.5 -106.5t227.5 -43.5q123 0 202 19.5t134 50.5q8 4 17.5 19.5t9.5 25.5v127q0 23 -14.5 37t-34.5 14q-23 0 -33 -10q-49 -27 -114.5 -44t-147.5 -17q-109 0 -172.5 60t-81.5 149h620 q20 0 34.5 14t14.5 37v65q0 254 -115.5 388t-336.5 134q-90 0 -172 -32.5t-137 -91.5q-55 68 -140.5 96t-197.5 28q-88 0 -171 -20t-151 -55q-10 -4 -17 -18.5t-7 -26.5q0 -20 6 -27l39 -94v2q10 -31 47 -31q12 0 24 6q94 47 207 47q195 0 195 -159v-2q-47 27 -104.5 42 t-129.5 15q-188 0 -298.5 -104.5t-110.5 -268.5zM285 350q0 74 44 118t128 44q100 0 154.5 -44t54.5 -114q0 -74 -57.5 -120t-145.5 -46t-133 44t-45 118zM924 618q14 96 69.5 154.5t143.5 58.5t133 -54t55 -159h-401z" />
<glyph unicode="&#xe7;" horiz-adv-x="894" d="M68 516q0 -193 89 -330t255 -186l-74 -96q-10 -16 -10 -31q0 -23 14 -37l45 -41h-2q14 -14 37 -14q18 0 29 10q41 18 73 19q20 0 35.5 -5.5t15.5 -17.5t-22.5 -16t-60.5 -4q-41 0 -89.5 12t-83.5 28h-8l-8 3q-20 0 -34.5 -14.5t-14.5 -37.5v-98q0 -14 11 -27.5t22 -19.5 q63 -23 116.5 -34t114.5 -11q125 0 206 53t81 170q0 74 -43 122t-107 67q66 8 124.5 25.5t109.5 37.5q10 4 20.5 19.5t10.5 27.5v131q0 23 -15.5 37t-36.5 14q-12 0 -24 -6q-68 -37 -128.5 -52t-121.5 -15q-125 0 -195.5 88t-70.5 229q0 135 65.5 223t194.5 88 q63 0 115.5 -12t95.5 -31q10 -8 28 -8q39 0 50 35l-3 -4l48 115v14q0 35 -29 47q-72 33 -146.5 53.5t-160.5 20.5q-115 0 -210 -40t-165 -113t-106.5 -172t-36.5 -216z" />
<glyph unicode="&#xe8;" horiz-adv-x="1071" d="M68 510q0 -233 130 -384t373 -151q119 0 194 18.5t142 51.5q27 14 27 45v127q0 23 -14.5 37t-34.5 14q-12 0 -25 -6q-55 -29 -120.5 -47t-147.5 -18q-109 0 -172.5 60t-81.5 149h616q51 0 52 51v65q0 205 -79 334t-227 170h2q49 0 50 49q0 8 -7 23l-4 8l-266 354l2 -4 q-4 8 -19.5 16.5t-23.5 8.5h-153q-23 0 -37.5 -14.5t-14.5 -32.5q0 -20 15 -35l-2 4l286 -356q0 -2 2 -3q-213 -8 -337.5 -154.5t-124.5 -379.5zM338 618q20 104 71.5 158.5t137.5 54.5t133 -55t57 -158h-399z" />
<glyph unicode="&#xe9;" horiz-adv-x="1071" d="M68 510q0 -233 130 -384t373 -151q119 0 194 18.5t142 51.5q27 14 27 45v127q0 23 -14.5 37t-34.5 14q-12 0 -25 -6q-55 -29 -120.5 -47t-147.5 -18q-109 0 -172.5 60t-81.5 149h616q51 0 52 51v65q0 248 -114 383t-327 139q4 4 4 7v-4l289 356l-2 -4q12 12 12 35 q0 18 -13 32.5t-36 14.5h-155q-8 0 -21.5 -7.5t-19.5 -15.5l2 2l-267 -354l2 4q-12 -12 -12 -35q0 -49 49 -49h13q-162 -45 -252 -182t-90 -334zM338 618q20 104 71.5 158.5t137.5 54.5t133 -55t57 -158h-399z" />
<glyph unicode="&#xea;" horiz-adv-x="1071" d="M68 510q0 -233 130 -384t373 -151q119 0 194 18.5t142 51.5q27 14 27 45v127q0 23 -14.5 37t-34.5 14q-12 0 -25 -6q-55 -29 -120.5 -47t-147.5 -18q-109 0 -172.5 60t-81.5 149h616q51 0 52 51v65q0 254 -117 388t-336 134q-221 0 -353 -147t-132 -387zM213 1077 q0 -20 14.5 -34.5t34.5 -14.5h121q10 0 22.5 5t16.5 9l133 232l143 -230q4 -4 17.5 -10t21.5 -6h129q23 0 37.5 14.5t14.5 34.5q0 18 -11 29l-215 373v-2q-4 8 -19.5 17t-25.5 9h-168q-8 0 -23.5 -9t-19.5 -17l-217 -377l4 8q-10 -11 -10 -31zM338 618q20 104 71.5 158.5 t137.5 54.5t133 -55t57 -158h-399z" />
<glyph unicode="&#xeb;" horiz-adv-x="1071" d="M68 510q0 -233 130 -384t373 -151q119 0 194 18.5t142 51.5q27 14 27 45v127q0 23 -14.5 37t-34.5 14q-12 0 -25 -6q-55 -29 -120.5 -47t-147.5 -18q-109 0 -172.5 60t-81.5 149h616q51 0 52 51v65q0 195 -70 321t-205 173h8q63 0 108.5 41t45.5 100q0 57 -45 99t-109 42 q-66 0 -109.5 -42t-43.5 -99q0 -82 73 -123q-55 10 -106 10q-59 0 -127 -14q39 16 62.5 51t23.5 76q0 57 -45 99t-109 42q-63 0 -108 -42t-45 -99t45 -99t108 -42q18 0 27 2q-150 -51 -233.5 -185.5t-83.5 -322.5zM338 618q20 104 71.5 158.5t137.5 54.5t133 -55t57 -158 h-399z" />
<glyph unicode="&#xec;" horiz-adv-x="548" d="M-41 1409q0 -20 14 -35l-2 4l285 -354q8 -10 18 -16q-41 12 -71 12q-49 0 -104.5 -22.5t-102.5 -57.5h2q-23 -14 -23 -43q0 -20 11 -31l37 -61q18 -25 43 -25q14 0 30 11q23 18 45 18q4 0 4 -27v-571q0 -109 44 -166t147 -57q51 0 108.5 25.5t108.5 66.5l8 45l-49 82 q-16 25 -43 24q-12 0 -29 -8q-10 -8 -23.5 -15t-21.5 -7q-2 0 -2 24v596q0 61 -24.5 109.5t-73.5 70.5h137q49 0 49 50q0 8 -6 22l-4 8l-266 355l2 -4q-4 8 -19.5 16t-23.5 8h-154q-23 0 -37 -14.5t-14 -32.5z" />
<glyph unicode="&#xed;" horiz-adv-x="548" d="M-25 897q0 -20 11 -31l37 -61q18 -25 43 -25q14 0 30 11q23 18 45 18q4 0 4 -27v-571q0 -109 44 -166t147 -57q51 0 108.5 25.5t108.5 66.5l8 45l-49 82q-16 25 -43 24q-12 0 -29 -8q-10 -8 -23.5 -15t-21.5 -7q-2 0 -2 24v596q0 82 -45 138.5t-133 60.5q4 4 4 6v-4 l289 356l-2 -4q12 12 12 35q0 18 -13 32.5t-36 14.5h-156q-8 0 -21 -7t-20 -15l2 2l-266 -355l2 4q-12 -12 -12 -34q0 -49 49 -50h62q-57 -20 -113 -61h2q-23 -14 -23 -43z" />
<glyph unicode="&#xee;" horiz-adv-x="548" d="M-100 1047q0 -20 14 -35t35 -15h121q10 0 22 5.5t17 9.5l133 231l143 -229q4 -4 17.5 -10.5t21.5 -6.5h129q23 0 37 14.5t14 35.5q0 18 -10 28l-215 373v-2q-4 8 -19.5 17.5t-25.5 9.5h-168q-8 0 -23.5 -9.5t-19.5 -17.5l-217 -377l4 8q-10 -10 -10 -30zM-25 897 q0 -20 11 -31l37 -61q18 -25 43 -25q14 0 30 11q23 18 45 18q4 0 4 -27v-571q0 -109 44 -166t147 -57q51 0 108.5 25.5t108.5 66.5l8 45l-49 82q-16 25 -43 24q-12 0 -29 -8q-10 -8 -23.5 -15t-21.5 -7q-2 0 -2 24v596q0 86 -47 142.5t-143 56.5q-49 0 -104.5 -22.5 t-102.5 -57.5h2q-23 -14 -23 -43z" />
<glyph unicode="&#xef;" horiz-adv-x="548" d="M-104 1153q0 -57 45 -99t108 -42t108.5 41t45.5 100q0 57 -45 99t-109 42q-63 0 -108 -42t-45 -99zM-25 897q0 -20 11 -31l37 -61q18 -25 43 -25q14 0 30 11q23 18 45 18q4 0 4 -27v-571q0 -109 44 -166t147 -57q51 0 108.5 25.5t108.5 66.5l8 45l-49 82q-16 25 -43 24 q-12 0 -29 -8q-10 -8 -23.5 -15t-21.5 -7q-2 0 -2 24v596q0 86 -47 142.5t-143 56.5q-49 0 -104.5 -22.5t-102.5 -57.5h2q-23 -14 -23 -43zM276 1153q0 -59 44.5 -100t109.5 -41q63 0 108.5 41t45.5 100q0 57 -45 99t-109 42q-66 0 -110 -42t-44 -99z" />
<glyph unicode="&#xf0;" horiz-adv-x="1107" d="M55 518q0 -244 135.5 -393.5t366.5 -149.5q238 0 374 162t136 459q0 262 -96.5 460.5t-247.5 336.5l98 82q6 6 12.5 19t6.5 24q0 12 -2 18t-11 14v-2l-59 70q-23 18 -39 18q-25 0 -35 -16l-125 -107q-59 41 -119.5 70t-117.5 49l-4 2h-6q-14 0 -27.5 -11t-24.5 -28 l-41 -84q-6 -10 -6 -26q0 -41 33 -49l2 -2q86 -37 135 -68l-141 -119q-6 -6 -6 -30q0 -20 10 -31l59 -72q14 -18 41 -18q12 0 18.5 2t14.5 10h-2l156 131q92 -84 159 -213q-86 33 -174 33q-213 0 -344 -150q-61 -72 -95 -172t-34 -219zM317 518q0 137 61.5 229.5t178.5 92.5 t178.5 -86t61.5 -213q0 -152 -61.5 -249t-178.5 -97t-178.5 93t-61.5 230z" />
<glyph unicode="&#xf1;" horiz-adv-x="1202" d="M-14 899q0 -20 10 -31l37 -63q18 -25 45 -25q20 0 33 13l-5 -2q29 20 50 20q6 0 6 -27v-733q0 -23 14 -37t35 -14h154q49 0 49 51v449q0 137 57 228t172 91q76 0 113 -51t37 -141v-416q0 -109 46 -166t152 -57q53 0 112.5 25.5t113.5 66.5l12 45l-53 84q-18 25 -43 24 q-12 0 -37 -12q-12 -8 -24.5 -14t-18.5 -6v24l-2 441q0 178 -97.5 278t-296.5 100q-84 0 -154.5 -29.5t-123.5 -80.5q-23 43 -64 65h74q12 0 29.5 14.5t21.5 30.5q6 25 17.5 41.5t27.5 16.5q29 0 86 -17l-6 2l13 -6h8l30 -10h2q29 -6 52.5 -9t64.5 -3q104 0 168 81t64 185 l-35 35h-119q-45 0 -49 -43v-4q-10 -55 -43 -56q-18 0 -43 7q-4 2 -6 2h2l-17 6l-16 4l-2 -2l-2 2h-4q-49 14 -80 20.5t-72 6.5q-111 0 -177 -78t-71 -176q0 -18 9 -29q-8 2 -27 2q-49 0 -103.5 -22.5t-105.5 -59.5h2q-22 -14 -22 -41z" />
<glyph unicode="&#xf2;" horiz-adv-x="1146" d="M68 510q0 -242 135 -388.5t366 -146.5q233 0 367.5 146.5t134.5 388.5q0 176 -74.5 305t-210.5 189q35 10 35 47q0 8 -6 22l-4 8l-266 355l2 -4q-4 8 -19.5 16t-23.5 8h-154q-23 0 -37 -14.5t-14 -32.5q0 -20 14 -35l-2 4l269 -334h-11q-233 0 -367 -146t-134 -388z M330 510q0 135 61.5 227t177.5 92q117 0 178.5 -92t61.5 -227t-61.5 -226t-178.5 -91t-178 91t-61 226z" />
<glyph unicode="&#xf3;" horiz-adv-x="1146" d="M68 510q0 -242 135 -388.5t366 -146.5q233 0 367.5 146.5t134.5 388.5q0 229 -122 373.5t-335 158.5l273 336l-2 -4q12 12 12 35q0 18 -13.5 32.5t-35.5 14.5h-156q-8 0 -21.5 -7t-19.5 -15l2 2l-266 -355l2 4q-12 -12 -12 -34q0 -23 10 -35q-152 -51 -235.5 -184.5 t-83.5 -321.5zM330 510q0 135 61.5 227t177.5 92q117 0 178.5 -92t61.5 -227t-61.5 -226t-178.5 -91t-178 91t-61 226z" />
<glyph unicode="&#xf4;" horiz-adv-x="1146" d="M68 510q0 -242 135 -388.5t366 -146.5q233 0 367.5 146.5t134.5 388.5q0 172 -70.5 300t-201.5 187h86q23 0 37 14.5t14 35.5q0 18 -10 28l-215 373v-2q-4 8 -19.5 17.5t-25.5 9.5h-168q-8 0 -23.5 -9.5t-19.5 -17.5l-217 -377l4 8q-10 -10 -11 -30q0 -20 14.5 -35 t35.5 -15h57q-129 -59 -199.5 -187t-70.5 -300zM330 510q0 135 61.5 227t177.5 92q117 0 178.5 -92t61.5 -227t-61.5 -226t-178.5 -91t-178 91t-61 226zM453 1032l120 211l134 -215q-70 16 -138 16q-61 0 -116 -12z" />
<glyph unicode="&#xf5;" horiz-adv-x="1146" d="M68 510q0 -242 135 -388.5t366 -146.5q233 0 367.5 146.5t134.5 388.5t-134 388t-368 146q-92 0 -178 -26q12 12 19 26q6 25 17 41.5t28 16.5q29 0 86 -17l-6 2l12 -6h8l31 -10h2q29 -6 52.5 -9t64.5 -3q104 0 167.5 81t63.5 185l-35 35h-119q-45 0 -49 -43v-2 q-4 -25 -15 -41.5t-28 -16.5q-18 0 -43 7q-4 2 -6 2h2l-16 6l-17 4l-2 -2l-2 2h-4q-49 14 -79.5 20.5t-71.5 6.5q-111 0 -177.5 -78t-70.5 -176q0 -20 14 -35t37 -15h88q-131 -59 -202.5 -187t-71.5 -302zM330 510q0 135 61.5 227t177.5 92q117 0 178.5 -92t61.5 -227 t-61.5 -226t-178.5 -91t-178 91t-61 226z" />
<glyph unicode="&#xf6;" horiz-adv-x="1146" d="M68 510q0 -242 135 -388.5t366 -146.5q233 0 367.5 146.5t134.5 388.5q0 168 -67.5 293t-190.5 186q41 18 66.5 53t25.5 78q0 57 -45 99.5t-108 42.5q-66 0 -110 -42t-44 -100q0 -43 25 -78q-4 0 -27 2h-27q-27 0 -71 -4q27 37 26 80q0 57 -45 99.5t-108 42.5t-108.5 -42 t-45.5 -100q0 -45 28.5 -82t73.5 -51q-121 -63 -186 -187t-65 -290zM330 510q0 135 61.5 227t177.5 92q117 0 178.5 -92t61.5 -227t-61.5 -226t-178.5 -91t-178 91t-61 226z" />
<glyph unicode="&#xf7;" horiz-adv-x="1124" d="M16 573q0 -51 52 -51h1028q51 0 51 51v142q0 51 -51 51h-1028q-51 0 -52 -51v-142zM420 322q0 -66 48 -114t114 -48q68 0 115.5 46t47.5 116q0 66 -49 113.5t-114 47.5q-66 0 -114 -46.5t-48 -114.5zM420 967q0 -66 48 -114t114 -48q68 0 115.5 47t47.5 115 q0 66 -49 114.5t-114 48.5q-66 0 -114 -46.5t-48 -116.5z" />
<glyph unicode="&#xf8;" horiz-adv-x="1099" d="M68 512q0 -199 92 -334l-66 -76v2q-10 -10 -10 -32q0 -25 16 -41l72 -60q10 -10 31 -10q23 0 39 16l57 70q121 -72 270 -72q231 0 366.5 147.5t135.5 389.5q0 193 -92 330l61 71q16 10 17 35q0 16 -19 39l-67 62h2q-14 14 -39 14q-20 0 -37 -16l-59 -70q-123 70 -269 70 q-231 0 -366 -146.5t-135 -388.5zM330 512q0 135 61.5 226t177.5 91q72 0 117 -30l-344 -406q-12 45 -12 119zM449 221l344 404q16 -55 16 -113q0 -135 -61.5 -227t-178.5 -92q-69 -1 -120 28z" />
<glyph unicode="&#xf9;" horiz-adv-x="1200" d="M-23 899q0 -20 11 -31l37 -63q18 -25 45 -25q20 0 32 13l-4 -2q29 20 49 20q4 0 5 -18v-439q0 -178 96 -278.5t297 -100.5q84 0 152.5 30t121.5 79q43 -84 160 -84q55 0 114.5 24.5t110.5 65.5l10 49l-51 80q-18 25 -43 25q-10 0 -26 -8l-4 -3q-4 -4 -7 -4q-2 0 -4 -2 q-27 -14 -39 -14v758q0 49 -51 49h-151q-51 0 -52 -49v-449q0 -137 -56 -228t-173 -91q-76 0 -111.5 51t-35.5 141v426q0 86 -49.5 142.5t-149.5 56.5q-49 0 -106.5 -21.5t-106.5 -58.5h2q-23 -14 -23 -41zM238 1409q0 -20 14 -35l-2 4l287 -356l-2 4q4 -8 19 -16.5t21 -8.5 h136q49 0 49 50q0 8 -6 22l-4 8l-267 355l2 -4q-4 8 -19 16t-24 8h-153q-23 0 -37 -14.5t-14 -32.5z" />
<glyph unicode="&#xfa;" horiz-adv-x="1200" d="M-23 899q0 -20 11 -31l37 -63q18 -25 45 -25q20 0 32 13l-4 -2q29 20 49 20q4 0 5 -18v-439q0 -178 96 -278.5t297 -100.5q84 0 152.5 30t121.5 79q43 -84 160 -84q55 0 114.5 24.5t110.5 65.5l10 49l-51 80q-18 25 -43 25q-10 0 -26 -8l-4 -3q-4 -4 -7 -4q-2 0 -4 -2 q-27 -14 -39 -14v758q0 49 -51 49h-151q-51 0 -52 -49v-449q0 -137 -56 -228t-173 -91q-76 0 -111.5 51t-35.5 141v426q0 86 -49.5 142.5t-149.5 56.5q-49 0 -106.5 -21.5t-106.5 -58.5h2q-23 -14 -23 -41zM377 1051q0 -49 49 -50h133q8 0 20.5 7.5t18.5 17.5v-4l289 356 l-2 -4q12 12 12 35q0 18 -13.5 32.5t-35.5 14.5h-156q-8 0 -21.5 -7t-19.5 -15l2 2l-266 -355l2 4q-12 -11 -12 -34z" />
<glyph unicode="&#xfb;" horiz-adv-x="1200" d="M-23 899q0 -20 11 -31l37 -63q18 -25 45 -25q20 0 32 13l-4 -2q29 20 49 20q4 0 5 -18v-439q0 -178 96 -278.5t297 -100.5q84 0 152.5 30t121.5 79q43 -84 160 -84q55 0 114.5 24.5t110.5 65.5l10 49l-51 80q-18 25 -43 25q-10 0 -26 -8l-4 -3q-4 -4 -7 -4q-2 0 -4 -2 q-27 -14 -39 -14v758q0 49 -51 49h-80q8 8 9 27q0 18 -11 28l-215 373v-2q-4 8 -19.5 17.5t-25.5 9.5h-168q-8 0 -23.5 -9.5t-19.5 -17.5l-217 -377l4 8q-10 -10 -10 -30q0 -18 8 -27h-10q-49 0 -106.5 -21.5t-106.5 -58.5h2q-23 -14 -23 -41zM315 997h68q10 0 22.5 5.5 t16.5 9.5l133 231l143 -229q4 -4 17.5 -10.5t21.5 -6.5h56q-6 -12 -7 -26v-449q0 -137 -56 -228t-173 -91q-76 0 -111.5 51t-35.5 141v426q0 57 -24 104t-71 72z" />
<glyph unicode="&#xfc;" horiz-adv-x="1200" d="M-23 899q0 -20 11 -31l37 -63q18 -25 45 -25q20 0 32 13l-4 -2q29 20 49 20q4 0 5 -18v-439q0 -178 96 -278.5t297 -100.5q84 0 152.5 30t121.5 79q43 -84 160 -84q55 0 114.5 24.5t110.5 65.5l10 49l-51 80q-18 25 -43 25q-10 0 -26 -8l-4 -3q-4 -4 -7 -4q-2 0 -4 -2 q-27 -14 -39 -14v758q0 49 -51 49h-117q45 39 46 100q0 57 -45.5 99.5t-108.5 42.5q-66 0 -110 -42t-44 -100q0 -59 44 -100t110 -41q14 0 22 2v-459q0 -137 -56 -228t-173 -91q-76 0 -111.5 51t-35.5 141v426q0 113 -76 164q23 -6 49 -6q63 0 108.5 41t45.5 100 q0 57 -45.5 99.5t-108.5 42.5t-108.5 -42t-45.5 -100q0 -72 62 -112q-33 12 -80 12q-49 0 -106.5 -21.5t-106.5 -58.5h2q-23 -14 -23 -41z" />
<glyph unicode="&#xfd;" horiz-adv-x="1161" d="M-23 909q0 -20 11 -30l37 -64q18 -25 43 -24q14 0 30 10q29 20 49 20q2 0 3 -20v-443q0 -180 96 -281.5t295 -101.5q72 0 135 25t115 66q0 -154 -56.5 -237t-208.5 -83q-82 0 -149.5 16.5t-120.5 42.5l2 -2q-12 6 -25 7q-47 0 -47 -50v-131q0 -37 31 -47h-2 q63 -27 143 -43t179 -16q252 0 374.5 143.5t122.5 419.5v897q0 51 -51 51h-152q-49 0 -49 -51v-469q-4 -135 -60 -222t-167 -87q-76 0 -111.5 52t-35.5 142v432q0 88 -49.5 145.5t-147.5 57.5q-49 0 -107.5 -22.5t-105.5 -59.5h2q-23 -14 -23 -43zM412 1051q0 -49 49 -50 h133q8 0 20.5 7.5t18.5 17.5v-4l289 356l-2 -4q12 12 12 35q0 18 -13.5 32.5t-35.5 14.5h-156q-8 0 -21.5 -7t-19.5 -15l2 2l-266 -355l2 4q-12 -11 -12 -34z" />
<glyph unicode="&#xfe;" horiz-adv-x="1196" d="M-16 1520q0 -20 10 -31l-4 8l41 -74q18 -25 45 -24q20 0 33 12l-5 -2q29 20 50 21q8 0 8 -27v-1813q0 -49 49 -49h154q51 0 51 49v471q111 -86 289 -86q104 0 190 41t147.5 115t93 174.5t31.5 214.5q0 246 -123.5 395.5t-355.5 149.5q-74 0 -146.5 -24.5t-129.5 -69.5 v463q0 92 -47.5 151.5t-147.5 59.5q-49 0 -106.5 -24t-106.5 -60h2q-22 -14 -22 -41zM416 520q0 133 70.5 226.5t189.5 93.5q113 0 168 -90.5t55 -229.5q0 -137 -57.5 -227t-169.5 -90q-117 0 -186.5 92t-69.5 225z" />
<glyph unicode="&#xff;" horiz-adv-x="1161" d="M-23 909q0 -20 11 -30l37 -64q18 -25 43 -24q14 0 30 10q29 20 49 20q2 0 3 -20v-443q0 -180 96 -281.5t295 -101.5q72 0 135 25t115 66q0 -154 -56.5 -237t-208.5 -83q-82 0 -149.5 16.5t-120.5 42.5l2 -2q-12 6 -25 7q-47 0 -47 -50v-131q0 -37 31 -47h-2 q63 -27 143 -43t179 -16q252 0 374.5 143.5t122.5 419.5v897q0 51 -51 51h-102q31 37 30 86q0 57 -45 99.5t-108 42.5q-66 0 -110 -42t-44 -100q0 -59 44 -100t110 -41q16 0 24 2v-467q-4 -135 -60 -222t-167 -87q-76 0 -111.5 52t-35.5 142v432q0 94 -54 150q6 -2 23 -2 q63 0 108 41t45 100q0 57 -45 99.5t-108 42.5t-108.5 -42t-45.5 -100q0 -51 35 -90q-29 4 -47 4q-49 0 -107.5 -22.5t-105.5 -59.5h2q-23 -14 -23 -43z" />
<glyph unicode="&#x152;" horiz-adv-x="1855" d="M57 756q0 -172 42 -314.5t128 -246t217 -158.5t306 -55q72 0 157 6h6q6 2 11 2h18q12 2 23 2q139 8 239 8h608q51 0 52 51v125q0 51 -52 51h-612v449h488q51 0 51 51v127q0 51 -51 51h-488v381h545q23 0 37 14.5t14 34.5v127q0 49 -51 49h-471q-92 0 -173 3.5t-167 9.5 q-100 6 -184 6q-174 0 -305.5 -55.5t-217.5 -159t-128 -245.5t-42 -314zM340 756q0 117 21.5 214t69.5 172t127 115.5t192 40.5q100 0 188 -8v-1067q-94 -8 -188 -8q-111 0 -191 41t-128 114.5t-69.5 171t-21.5 214.5z" />
<glyph unicode="&#x153;" horiz-adv-x="1748" d="M70 510q0 -240 134 -387.5t363 -147.5q113 0 200 40t153 118q55 -72 149 -115t225 -43q125 0 202 18.5t136 51.5q27 14 27 45v127q0 23 -15.5 37t-35.5 14q-12 0 -25 -6q-51 -29 -116.5 -47t-151.5 -18q-109 0 -172.5 60t-81.5 149h618q51 0 52 51v65q0 254 -116 388 t-339 134q-113 0 -198 -40.5t-146 -118.5q-68 76 -160 117.5t-205 41.5q-229 0 -363 -146t-134 -388zM334 510q0 135 60.5 227t172.5 92q117 0 175.5 -91t58.5 -228t-58.5 -227t-175.5 -90q-113 0 -173 91t-60 226zM1061 618q18 102 69.5 157.5t139.5 55.5t133 -54t55 -159 h-397z" />
<glyph unicode="&#x178;" horiz-adv-x="1202" d="M-29 1350q0 -23 14.5 -37.5t34.5 -14.5h70l395 -632v-447h-67q-51 0 -51 -51v-117q0 -51 51 -51h399q51 0 51 51v117q0 51 -51 51h-67v455l354 624h76q51 0 51 52v118q0 51 -51 52h-191q-10 0 -25.5 -9.5t-19.5 -17.5l-323 -567l-351 569v-2q-6 8 -18 17.5t-25 9.5h-207 q-20 0 -34.5 -14.5t-14.5 -37.5v-118zM213 1675q0 -66 45 -111.5t111 -45.5t111.5 46t45.5 111q0 66 -46 113t-111 47q-63 0 -109.5 -47t-46.5 -113zM698 1675q0 -66 45 -111.5t111 -45.5t112 46t46 111q0 66 -46 113t-112 47q-63 0 -109.5 -47t-46.5 -113z" />
<glyph unicode="&#x2c6;" horiz-adv-x="1007" d="M172 1047q0 -20 14.5 -35t34.5 -15h121q10 0 22.5 5.5t16.5 9.5l133 231l143 -229q4 -4 17.5 -10.5t21.5 -6.5h129q23 0 37.5 14.5t14.5 35.5q0 18 -11 28l-215 373v-2q-4 8 -19.5 17.5t-25.5 9.5h-168q-8 0 -23.5 -9.5t-19.5 -17.5l-217 -377l4 8q-10 -10 -10 -30z" />
<glyph unicode="&#x2dc;" horiz-adv-x="1009" d="M158 1049q0 -20 14 -35t37 -15h104q12 0 29.5 14.5t22.5 30.5q6 25 17 41.5t28 16.5q29 0 86 -17l-7 2l13 -6h8l31 -10h2q29 -6 52 -9t64 -3q104 0 168 81t64 185l-35 35h-119q-20 0 -34.5 -12.5t-14.5 -32.5q-4 -25 -15 -41.5t-28 -16.5q-18 0 -43 7q-4 2 -6 2h2l-16 6 l-17 4l-2 -2l-2 2h-4q-49 14 -80 20.5t-71 6.5q-111 0 -177.5 -78t-70.5 -176z" />
<glyph unicode="&#x2000;" horiz-adv-x="952" />
<glyph unicode="&#x2001;" horiz-adv-x="1906" />
<glyph unicode="&#x2002;" horiz-adv-x="952" />
<glyph unicode="&#x2003;" horiz-adv-x="1906" />
<glyph unicode="&#x2004;" horiz-adv-x="634" />
<glyph unicode="&#x2005;" horiz-adv-x="475" />
<glyph unicode="&#x2006;" horiz-adv-x="317" />
<glyph unicode="&#x2007;" horiz-adv-x="317" />
<glyph unicode="&#x2008;" horiz-adv-x="237" />
<glyph unicode="&#x2009;" horiz-adv-x="380" />
<glyph unicode="&#x200a;" horiz-adv-x="104" />
<glyph unicode="&#x2010;" horiz-adv-x="641" d="M57 375q0 -47 52 -47h462q49 0 50 47v123q0 47 -50 47h-462q-51 0 -52 -47v-123z" />
<glyph unicode="&#x2011;" horiz-adv-x="641" d="M57 375q0 -47 52 -47h462q49 0 50 47v123q0 47 -50 47h-462q-51 0 -52 -47v-123z" />
<glyph unicode="&#x2012;" horiz-adv-x="641" d="M57 375q0 -47 52 -47h462q49 0 50 47v123q0 47 -50 47h-462q-51 0 -52 -47v-123z" />
<glyph unicode="&#x2013;" horiz-adv-x="1024" d="M-31 373q0 -45 51 -45h984q51 0 51 45v116q0 47 -51 48h-984q-51 0 -51 -48v-116z" />
<glyph unicode="&#x2014;" horiz-adv-x="2048" d="M-31 373q0 -45 51 -45h2008q51 0 51 45v116q0 47 -51 48h-2008q-51 0 -51 -48v-116z" />
<glyph unicode="&#x2018;" horiz-adv-x="520" d="M92 1096q0 -12 12.5 -28.5t22.5 -20.5l178 -50h4q45 0 51 41q16 100 56.5 217t83.5 201l-25 51l-119 41h-8q-10 0 -22.5 -5t-16.5 -9q-59 -72 -121.5 -191.5t-93.5 -242.5v-2q-2 0 -2 -2z" />
<glyph unicode="&#x2019;" horiz-adv-x="520" d="M78 1085q0 -16 9 -30.5t30 -18.5l-4 2l106 -39h10q23 0 31 9q61 76 126 199.5t99 246.5l-24 43l-191 53l-2 2h-4q-18 0 -32.5 -13t-14.5 -34v6q-18 -104 -55 -215.5t-78 -187.5q-6 -13 -6 -23z" />
<glyph unicode="&#x201a;" horiz-adv-x="520" d="M63 -174q0 -16 9.5 -30.5t29.5 -18.5l-4 2l107 -37h8q27 0 33 6q61 76 125.5 201t97.5 246l-25 45l-188 53h-4q-45 0 -51 -43q-16 -100 -53 -213t-78 -189q-7 -12 -7 -22z" />
<glyph unicode="&#x201c;" horiz-adv-x="919" d="M98 1096q0 -16 12.5 -32.5t26.5 -19.5l178 -47h13q18 0 33.5 11.5t17.5 29.5q20 104 62 221t87 197l-24 51l-125 41h-10q-8 0 -21.5 -5t-17.5 -9q-61 -72 -128 -192.5t-102 -239.5v-2zM467 1096q0 -16 12.5 -32.5t26.5 -19.5l178 -47h12q45 0 52 41q20 104 60 221t85 195 l-21 53l-124 41h-11q-8 0 -21.5 -5t-17.5 -9q-61 -72 -127.5 -192.5t-101.5 -239.5v-2z" />
<glyph unicode="&#x201d;" horiz-adv-x="919" d="M86 1083q0 -39 35 -47l-2 2l114 -39h9q25 0 39 15q61 72 128.5 194.5t102.5 245.5l-27 45l-190 51l-8 2h-8q-41 0 -48 -41q-16 -100 -56 -213.5t-83 -189.5q-6 -13 -6 -25zM455 1083q0 -39 34 -47l-2 2l113 -39h10q25 0 39 15q61 72 129 194.5t103 245.5l-27 45l-190 51 l-9 2h-8q-41 0 -47 -41q-18 -102 -58 -214.5t-81 -188.5q-6 -13 -6 -25z" />
<glyph unicode="&#x201e;" horiz-adv-x="919" d="M63 -174q0 -16 9.5 -30.5t29.5 -18.5l-4 2l113 -37h10q8 0 21.5 4t17.5 8q61 72 128 195t101 246l-24 47l-191 51h-12q-18 0 -33.5 -11.5t-19.5 -29.5q-18 -102 -57 -216t-82 -188q-7 -12 -7 -22zM432 -176q0 -39 37 -47l-2 2l113 -37h10q25 0 37 12q63 74 129.5 195 t101.5 246l-24 47l-191 51h-12q-18 0 -33.5 -11.5t-19.5 -29.5q-18 -102 -57.5 -216t-82.5 -188q-6 -12 -6 -24z" />
<glyph unicode="&#x2022;" horiz-adv-x="978" d="M133 735q0 -76 28.5 -145.5t81 -120.5t121 -80t144.5 -29q78 0 146.5 29t119.5 80t80 119.5t29 146.5q0 76 -29 144.5t-80 121t-119.5 81t-146.5 28.5q-76 0 -144.5 -28.5t-121 -81t-81 -121t-28.5 -144.5z" />
<glyph unicode="&#x2026;" horiz-adv-x="1996" d="M182 133q0 -63 52.5 -108t119.5 -45q68 0 119 45t51 108q0 61 -50 107.5t-120 46.5t-121 -46.5t-51 -107.5zM848 133q0 -63 51 -108t119 -45t120 45t52 108q0 61 -51.5 107.5t-120.5 46.5q-70 0 -120 -46.5t-50 -107.5zM1513 133q0 -63 51.5 -108t118.5 -45q68 0 119 45 t51 108q0 61 -50 107.5t-120 46.5t-120 -46.5t-50 -107.5z" />
<glyph unicode="&#x202f;" horiz-adv-x="380" />
<glyph unicode="&#x2039;" horiz-adv-x="595" d="M82 520q0 -23 12 -35l262 -411q14 -23 39 -23q14 0 23 6l108 74q23 14 23 41q0 8 -1 14.5t-9 20.5l-199 313l199 314q8 14 9 20t1 14q0 27 -23 41l-108 74l-4 2q-10 4 -19 4q-25 0 -39 -22l-262 -410q-12 -25 -12 -37z" />
<glyph unicode="&#x203a;" horiz-adv-x="595" d="M82 170q0 -20 24 -39l109 -74q10 -6 23 -6q23 0 36 23l273 424v8q2 10 2 14v12l-2 11l-273 424q-14 23 -36 22q-8 0 -19 -4l-4 -2l-109 -74q-25 -18 -24 -39q0 -12 14 -36l195 -314l-195 -313q-14 -25 -14 -37z" />
<glyph unicode="&#x205f;" horiz-adv-x="475" />
<glyph unicode="&#x20ac;" horiz-adv-x="1245" d="M-33 535q0 -51 51 -52h76q68 -244 248 -382t434 -138q127 0 232.5 26.5t183.5 67.5q27 14 27 45v150q0 23 -14.5 37t-35.5 14q-23 0 -32 -10l8 4q-78 -43 -159 -66.5t-187 -23.5q-137 0 -243.5 72.5t-162.5 203.5h654q51 0 51 52v135q0 20 -14.5 34.5t-36.5 14.5h-705v72 h705q51 0 51 49v135q0 49 -51 49h-658q53 133 156.5 210t245.5 77q86 0 156.5 -17.5t150.5 -48.5q6 -6 26 -6q39 0 50 35l-3 -2l46 114q8 10 8 29q0 39 -35 49l4 -2q-94 39 -191.5 62.5t-222.5 23.5q-250 0 -434 -141t-252 -383h-76q-51 0 -51 -49v-135q0 -49 51 -49h43v-72 h-43q-23 0 -37 -14.5t-14 -34.5v-135z" />
<glyph unicode="&#x2122;" horiz-adv-x="1994" d="M27 1335q0 -49 51 -49h211v-522h-33q-49 0 -49 -49v-86q0 -51 49 -51h291q51 0 51 51v86q0 49 -51 49h-31v522h209q51 0 51 49v99q0 20 -14 34.5t-37 14.5h-647q-23 0 -37 -14.5t-14 -34.5v-99zM788 629q0 -51 52 -51h188q51 0 51 51v407l183 -428q4 -12 19 -21t28 -9h80 q12 0 27.5 10t19.5 22v-2l178 424v-403q0 -51 51 -51h201q49 0 49 51v86q0 49 -49 49h-31v532h31q49 0 49 52v86q0 49 -49 49h-254q-8 0 -24.5 -10.5t-20.5 -18.5l-213 -506l-217 506q-4 8 -19.5 18.5t-25.5 10.5h-252q-23 0 -37.5 -14.5t-14.5 -34.5v-86q0 -51 52 -52h28 v-532h-28q-51 0 -52 -49v-86z" />
<glyph unicode="&#xe000;" horiz-adv-x="1040" d="M0 1040h1040v-1040h-1040v1040z" />
<glyph unicode="&#xfb01;" horiz-adv-x="1114" d="M590 909q0 -20 10 -30l37 -64q18 -25 43 -24q14 0 30 10q25 20 46 20q4 0 4 -26l-2 -574v-8q0 -111 44 -168t146 -57q51 0 108.5 25.5t108.5 66.5l8 47l-49 82q-20 27 -41 27q-8 0 -22 -7l-9 -4q-10 -8 -23 -15t-22 -7q-2 0 -2 24l2 598v6q0 88 -47 145.5t-143 57.5 q-47 0 -103.5 -22.5t-103.5 -59.5h2q-22 -14 -22 -43zM704 1348q0 -70 43 -114t109 -44q68 0 110.5 44t42.5 114q0 63 -45 110t-108 47q-61 0 -106.5 -47t-45.5 -110zM-14 874q0 -49 49 -49h123v-774q0 -51 49 -51h151q20 0 35 14.5t15 36.5v774h170q51 0 51 49v111 q0 51 -51 51h-170v174q0 94 21.5 146.5t80.5 52.5q23 0 46.5 -7t51.5 -18q10 -10 33 -10q12 0 26.5 9.5t18.5 21.5l43 111v10q0 31 -22 45q-57 35 -105.5 49t-105.5 14q-90 0 -156 -31.5t-105.5 -85t-58 -118t-18.5 -133.5v-230h-123q-49 0 -49 -51v-111z" />
<glyph unicode="&#xfb02;" horiz-adv-x="1085" d="M553 1509q0 -20 10 -30l-4 8l39 -72q18 -25 45 -24q20 0 33 12l-4 -2q29 20 47 20q2 0 2 -26v-1172q0 -119 43 -177t147 -58q53 0 109.5 24.5t107.5 67.5l10 47l-49 82q-20 27 -43 27q-18 0 -28 -11l-9 -4q-29 -18 -38 -18q-2 0 -3 26v1196q0 92 -46 150.5t-144 58.5 q-47 0 -103.5 -22.5t-101.5 -59.5h2q-22 -14 -22 -43zM-14 874q0 -49 49 -49h123v-774q0 -51 49 -51h151q20 0 35 14.5t15 36.5v774h170q51 0 51 49v111q0 51 -51 51h-170v174q0 94 21.5 146.5t80.5 52.5q23 0 46.5 -7t51.5 -18q10 -10 33 -10q12 0 26.5 9.5t18.5 21.5 l43 111v10q0 31 -22 45q-57 35 -105.5 49t-105.5 14q-90 0 -156 -31.5t-105.5 -85t-58 -118t-18.5 -133.5v-230h-123q-49 0 -49 -51v-111z" />
<glyph unicode="&#xfb03;" horiz-adv-x="1720" d="M1196 909q0 -20 10 -30l37 -64q18 -25 43 -24q14 0 30 10q25 20 46 20q4 0 4 -26l-2 -574v-8q0 -111 44 -168t146 -57q51 0 108.5 25.5t108.5 66.5l8 47l-49 82q-20 27 -41 27q-8 0 -22 -7l-9 -4q-10 -8 -23 -15t-22 -7q-2 0 -2 24l2 598v6q0 88 -47 145.5t-143 57.5 q-47 0 -103.5 -22.5t-103.5 -59.5h2q-22 -14 -22 -43zM1310 1348q0 -70 43 -114t109 -44q68 0 110.5 44t42.5 114q0 63 -45 110t-108 47q-61 0 -106.5 -47t-45.5 -110zM592 874q0 -49 49 -49h123v-774q0 -51 49 -51h151q20 0 35 14.5t15 36.5v774h170q51 0 51 49v111 q0 51 -51 51h-170v174q0 94 21.5 146.5t80.5 52.5q23 0 46.5 -7t51.5 -18q10 -10 33 -10q12 0 26.5 9.5t18.5 21.5l43 111v10q0 31 -22 45q-57 35 -105.5 49t-105.5 14q-90 0 -156 -31.5t-105.5 -85t-58 -118t-18.5 -133.5v-230h-123q-49 0 -49 -51v-111zM-14 874 q0 -49 49 -49h123v-774q0 -51 49 -51h151q20 0 35 14.5t15 36.5v774h170q51 0 51 49v111q0 51 -51 51h-170v174q0 94 21.5 146.5t80.5 52.5q23 0 46.5 -7t51.5 -18q10 -10 33 -10q12 0 26.5 9.5t18.5 21.5l43 111v10q0 31 -22 45q-57 35 -105.5 49t-105.5 14 q-90 0 -156 -31.5t-105.5 -85t-58 -118t-18.5 -133.5v-230h-123q-49 0 -49 -51v-111z" />
<glyph unicode="&#xfb04;" horiz-adv-x="1691" d="M1159 1509q0 -20 10 -30l-4 8l39 -72q18 -25 45 -24q20 0 33 12l-4 -2q29 20 47 20q2 0 2 -26v-1172q0 -119 43 -177t147 -58q53 0 109.5 24.5t107.5 67.5l10 47l-49 82q-20 27 -43 27q-18 0 -28 -11l-9 -4q-29 -18 -38 -18q-2 0 -3 26v1196q0 92 -46 150.5t-144 58.5 q-47 0 -103.5 -22.5t-101.5 -59.5h2q-22 -14 -22 -43zM592 874q0 -49 49 -49h123v-774q0 -51 49 -51h151q20 0 35 14.5t15 36.5v774h170q51 0 51 49v111q0 51 -51 51h-170v174q0 94 21.5 146.5t80.5 52.5q23 0 46.5 -7t51.5 -18q10 -10 33 -10q12 0 26.5 9.5t18.5 21.5 l43 111v10q0 31 -22 45q-57 35 -105.5 49t-105.5 14q-90 0 -156 -31.5t-105.5 -85t-58 -118t-18.5 -133.5v-230h-123q-49 0 -49 -51v-111zM-14 874q0 -49 49 -49h123v-774q0 -51 49 -51h151q20 0 35 14.5t15 36.5v774h170q51 0 51 49v111q0 51 -51 51h-170v174 q0 94 21.5 146.5t80.5 52.5q23 0 46.5 -7t51.5 -18q10 -10 33 -10q12 0 26.5 9.5t18.5 21.5l43 111v10q0 31 -22 45q-57 35 -105.5 49t-105.5 14q-90 0 -156 -31.5t-105.5 -85t-58 -118t-18.5 -133.5v-230h-123q-49 0 -49 -51v-111z" />
</font>
</defs>
</svg>
